<?xml version="1.0" encoding="utf-8"?>
<!-- Generator: Adobe Illustrator 24.3.0, SVG Export Plug-In . SVG Version: 6.00 Build 0)  -->
<svg version="1.1" id="Capa_1" xmlns="http://www.w3.org/2000/svg" xmlns:xlink="http://www.w3.org/1999/xlink" x="0px" y="0px"
	 viewBox="0 0 606 512" style="enable-background:new 0 0 606 512;" xml:space="preserve">
<g>
	<g>
		<g>
			<rect x="407.5" y="336" width="48" height="16"/>
			<rect x="343.5" y="336" width="48" height="16"/>
			<rect x="279.5" y="336" width="48" height="16"/>
			<path d="M535.4,182.4L377.1,24.1c-4.5-4.5-10.6-7.1-17-7.1H360c-6.3,0-12.4,2.6-16.9,7.1L175.2,192H87.5c-13.3,0-24,10.7-24,24
				v224c0,13.3,10.7,24,24,24H206l23.9,23.9c4.5,4.5,10.6,7.1,17,7.1h0.1c6.3,0,12.4-2.6,16.9-7.1l23.9-23.9h183.7
				c13.3,0,24-10.7,24-24V256.3l39.9-39.9c4.5-4.5,7.1-10.5,7.1-16.9C542.5,193.1,540,186.9,535.4,182.4z M433.6,103.3L344.9,192
				H277L399.7,69.3L433.6,103.3z M354.5,35.4c3-3.1,8-3.2,11.2-0.1c0,0,0.1,0.1,0.1,0.1L388.4,58l-134,134h-56.5L354.5,35.4z
				 M252.5,476.6c-1.5,1.5-3.5,2.4-5.6,2.4c-2.1,0-4.2-0.9-5.7-2.4L228.7,464h36.5L252.5,476.6z M479.5,440c0,4.4-3.6,8-8,8h-384
				c-4.4,0-8-3.6-8-8V328h400V440z M479.5,312h-400v-48h400V312z M479.5,248h-400v-32c0-4.4,3.6-8,8-8h384c4.4,0,8,3.6,8,8V248z
				 M524.1,205.1L524.1,205.1l-28.6,28.6V216c0-13.3-10.7-24-24-24h-104l77.4-77.4l79.1,79.1c1.5,1.5,2.4,3.6,2.4,5.7
				C526.5,201.6,525.6,203.6,524.1,205.1z"/>
			<path d="M140.2,432.2c1.2-1,2.3-2.1,3.3-3.3c10.6,12.3,28.8,14.7,42.1,5.4c8.6-6,13.8-15.9,13.9-26.4c0-17.7-14.3-32-32-32
				c-1.6,0-3.2,0.1-4.7,0.4l-0.2,0.1c-0.1,0-0.2,0-0.2,0c-7.3,1.2-14,5-18.8,10.6c-11.6-13.4-31.8-14.8-45.1-3.3
				c-13.4,11.6-14.8,31.8-3.3,45.1C106.7,442.3,126.9,443.8,140.2,432.2z M165.5,392.2c0.7-0.1,1.3-0.2,2-0.2c8.8,0,16,7.2,16,16
				c0,3.4-1.1,6.7-3.1,9.4c-0.3,0.4-0.5,0.8-0.8,1.2c-0.1,0.1-0.1,0.1-0.2,0.2c-3,3.3-7.3,5.2-11.8,5.2c-8.8-0.2-15.9-7.4-15.7-16.3
				C151.9,399.9,157.7,393.3,165.5,392.2z M119.5,392c8.8,0,16,7.2,16,16s-7.2,16-16,16s-16-7.2-16-16S110.7,392,119.5,392z"/>
		</g>
	</g>
</g>
</svg>
