<?xml version="1.0" encoding="utf-8"?>
<!-- Generator: Adobe Illustrator 24.3.0, SVG Export Plug-In . SVG Version: 6.00 Build 0)  -->
<svg version="1.1" id="Capa_1" xmlns="http://www.w3.org/2000/svg" xmlns:xlink="http://www.w3.org/1999/xlink" x="0px" y="0px"
	 viewBox="0 0 606 512" style="enable-background:new 0 0 606 512;" xml:space="preserve">
<g>
	<path d="M165.8,64H216V49.1c0-6.3,2.5-12,6.7-16.1c4.1-4.1,9.8-6.7,16.1-6.7s12,2.6,16.1,6.7c4.1,4.1,6.7,9.8,6.7,16.1V64h50.1
		V49.1c0-6.3,2.6-12,6.7-16.1s9.8-6.7,16.1-6.7c6.3,0,12,2.6,16.1,6.7s6.7,9.8,6.7,16.1V64h50.2V49.2c0-6.3,2.5-12,6.7-16.1
		c4.1-4.1,9.8-6.7,16.1-6.7c6.3,0,12,2.6,16.1,6.7s6.7,9.8,6.7,16.1V64h7.5c10.6,0,20.3,4.3,27.3,11.3s11.3,16.7,11.3,27.3v71.7
		c0,3.8-3.1,6.9-6.9,6.9s-6.9-3.1-6.9-6.9v-19.9H302.2c-3.8,0-6.9-3.1-6.9-6.9c0-3.8,3.1-6.9,6.9-6.9h183.2v-38.1
		c0-6.8-2.8-13-7.3-17.5s-10.7-7.3-17.6-7.3H453v14.7c0,6.3-2.6,12-6.7,16.1s-9.8,6.7-16.1,6.7c-6.3,0-12-2.5-16.1-6.7
		c-4.1-4.1-6.7-9.8-6.7-16.1V77.8h-50.2v14.5c0,6.3-2.5,12-6.7,16.1c-4.1,4.1-9.8,6.7-16.1,6.7c-6.3,0-12-2.6-16.1-6.7
		s-6.7-9.8-6.7-16.1V77.8h-50.1v14.5c0,6.3-2.6,12-6.7,16.1c-4.1,4.1-9.8,6.7-16.1,6.7s-12-2.6-16.1-6.7s-6.7-9.8-6.7-16.1V77.8
		h-50.2v14.5c0,6.3-2.6,12-6.7,16.1c-4.1,4.1-9.8,6.7-16.1,6.7s-12-2.6-16.1-6.7s-6.7-9.8-6.7-16.1V77.8h-7.6
		c-6.8,0-13,2.8-17.5,7.3s-7.3,10.7-7.3,17.5v38.1H271c3.8,0,6.9,3.1,6.9,6.9c0,3.8-3.1,6.9-6.9,6.9H87.8v203.3
		c0,3.8-3.1,6.9-6.9,6.9s-6.9-3.1-6.9-6.9V102.6c0-10.6,4.3-20.3,11.3-27.3S102,64,112.6,64h7.6V49.1c0-6.3,2.5-12,6.7-16.1
		c4.1-4.1,9.8-6.7,16.1-6.7s12,2.6,16.1,6.7s6.7,9.8,6.7,16.1V64z M440.2,331.6c0-3.8,3.1-6.9,6.9-6.9s6.9,3.1,6.9,6.9v60.6
		c0,1.9-0.7,3.5-2,4.8l-42.1,49.5c-2.4,2.9-6.8,3.3-9.7,0.8c-2.9-2.4-3.3-6.8-0.8-9.7l40.7-47.9L440.2,331.6z M398.2,324.8
		c-3.1,2.2-7.4,1.5-9.6-1.5c-2.2-3.1-1.6-7.4,1.5-9.6c8.1-5.9,17.2-10.6,27-13.7c9.4-3.1,19.5-4.7,29.9-4.7
		c13.7,0,26.6,2.8,38.4,7.9v-97.6c0-3.8,3.1-6.9,6.9-6.9s6.9,3.1,6.9,6.9v104.9c5.9,3.8,11.4,8.2,16.4,13.2
		c17.5,17.5,28.4,41.8,28.4,68.6c0,26.8-10.8,51-28.4,68.6c-17.6,17.6-41.8,28.4-68.6,28.4c-26.8,0-51-10.8-68.6-28.4
		c-6.7-6.7-12.4-14.3-16.9-22.7H109.9c-9.9,0-18.8-4-25.3-10.5s-10.5-15.4-10.5-25.3V389c0-3.8,3.1-6.9,6.9-6.9s6.9,3.1,6.9,6.9
		v13.4c0,6,2.5,11.6,6.5,15.5c4,4,9.5,6.5,15.6,6.5h245.7c-3.5-10-5.5-20.9-5.5-32.1c0-9.9,1.5-19.5,4.3-28.5
		c2.9-9.3,7.1-18.1,12.5-26c2.1-3.1,6.4-4,9.5-1.8c3.1,2.1,3.9,6.4,1.8,9.5c-4.6,6.8-8.2,14.3-10.7,22.3c-2.3,7.7-3.6,15.9-3.6,24.5
		c0,23,9.3,43.8,24.4,58.8c15.1,15.1,35.9,24.4,58.8,24.4c23,0,43.8-9.3,58.9-24.4c15-15,24.4-35.9,24.4-58.8
		c0-23-9.3-43.8-24.4-58.8C490.8,318.3,470,309,447,309c-9,0-17.6,1.4-25.7,4C413,315.8,405.2,319.8,398.2,324.8z M368.1,183.7h81.3
		c3.8,0,6.9,3.1,6.9,6.9v81.3c0,3.8-3.1,6.9-6.9,6.9h-81.3c-3.8,0-6.9-3.1-6.9-6.9v-81.3C361.2,186.8,364.3,183.7,368.1,183.7
		L368.1,183.7z M442.5,197.5H375V265h67.5V197.5z M246,300.1h81.3c3.8,0,6.9,3.1,6.9,6.9v81.3c0,3.8-3.1,6.9-6.9,6.9H246
		c-3.8,0-6.9-3.1-6.9-6.9V307C239.1,303.2,242.2,300.1,246,300.1L246,300.1z M320.4,313.9h-67.5v67.5h67.5V313.9z M246,183.7h81.3
		c3.8,0,6.9,3.1,6.9,6.9v81.3c0,3.8-3.1,6.9-6.9,6.9H246c-3.8,0-6.9-3.1-6.9-6.9v-81.3C239.1,186.8,242.2,183.7,246,183.7L246,183.7
		z M320.4,197.5h-67.5V265h67.5V197.5z M123.9,300.1h81.3c3.8,0,6.9,3.1,6.9,6.9v81.3c0,3.8-3.1,6.9-6.9,6.9h-81.3
		c-3.8,0-6.9-3.1-6.9-6.9V307C117,303.2,120.1,300.1,123.9,300.1z M198.3,313.9h-67.5v67.5h67.5V313.9z M123.9,183.7h81.3
		c3.8,0,6.9,3.1,6.9,6.9v81.3c0,3.8-3.1,6.9-6.9,6.9h-81.3c-3.8,0-6.9-3.1-6.9-6.9v-81.3C117,186.8,120.1,183.7,123.9,183.7
		L123.9,183.7z M198.3,197.5h-67.5V265h67.5V197.5z M430.3,40.2c-2.5,0-4.7,1-6.4,2.7c-1.6,1.6-2.7,3.9-2.7,6.3v21.6v21.6
		c0,2.5,1,4.7,2.7,6.4s3.9,2.7,6.4,2.7s4.7-1,6.3-2.7c1.6-1.6,2.7-3.9,2.7-6.4V70.9V49.2c0-2.5-1-4.7-2.7-6.3
		C435,41.3,432.7,40.2,430.3,40.2z M149.4,42.7c-1.6-1.6-3.9-2.7-6.4-2.7s-4.7,1-6.4,2.7c-1.6,1.6-2.7,3.9-2.7,6.4v21.8v21.4
		c0,2.5,1,4.7,2.7,6.4c1.6,1.6,3.9,2.7,6.4,2.7s4.7-1,6.4-2.7c1.6-1.6,2.7-3.9,2.7-6.4V70.9V49.1C152.1,46.6,151.1,44.3,149.4,42.7z
		 M238.8,40c-2.5,0-4.7,1-6.4,2.7c-1.6,1.6-2.7,3.9-2.7,6.4v21.8v21.4c0,2.5,1,4.7,2.7,6.4c1.6,1.6,3.9,2.7,6.4,2.7s4.7-1,6.3-2.7
		c1.6-1.6,2.7-3.9,2.7-6.4V70.9V49.1c0-2.5-1-4.7-2.7-6.4C243.5,41.1,241.3,40,238.8,40z M334.5,40c-2.5,0-4.7,1-6.4,2.7
		c-1.6,1.6-2.7,3.9-2.7,6.4v21.8v21.4c0,2.5,1,4.7,2.7,6.4c1.6,1.6,3.9,2.7,6.4,2.7s4.7-1,6.4-2.7s2.7-3.9,2.7-6.4V70.9V49.1
		c0-2.5-1-4.7-2.7-6.4C339.2,41.1,337,40,334.5,40z"/>
</g>
</svg>
