<?xml version="1.0" encoding="utf-8"?>
<!-- Generator: Adobe Illustrator 25.0.1, SVG Export Plug-In . SVG Version: 6.00 Build 0)  -->
<svg version="1.1" id="レイヤー_1" xmlns="http://www.w3.org/2000/svg" xmlns:xlink="http://www.w3.org/1999/xlink" x="0px"
	 y="0px" viewBox="0 0 30.5 31.2" style="enable-background:new 0 0 30.5 31.2;" xml:space="preserve">
<style type="text/css">
	.st0{fill:#FFFFFF;}
</style>
<path class="st0" d="M28.2,24.6l-5.9-5.9c1-1.7,1.5-3.6,1.5-5.7c0-6.1-5-11.1-11.1-11.1S1.5,6.9,1.5,13s5,11.1,11.1,11.1
	c2.1,0,4-0.6,5.7-1.5l5.9,5.9c0.5,0.5,1.3,0.8,2,0.8s1.4-0.3,2-0.8C29.3,27.4,29.3,25.7,28.2,24.6z M5.2,13c0-4.1,3.3-7.4,7.4-7.4
	c4.1,0,7.4,3.3,7.4,7.4c0,4.1-3.3,7.4-7.4,7.4C8.6,20.4,5.2,17.1,5.2,13z M17.3,13c0,0.5-0.4,0.9-0.9,0.9h-2.8v2.8
	c0,0.5-0.4,0.9-0.9,0.9c-0.5,0-0.9-0.4-0.9-0.9v-2.8H8.9C8.4,13.9,8,13.5,8,13s0.4-0.9,0.9-0.9h2.8V9.3c0-0.5,0.4-0.9,0.9-0.9
	c0.5,0,0.9,0.4,0.9,0.9v2.8h2.8C16.9,12.1,17.3,12.5,17.3,13z"/>
</svg>
