<?xml version="1.0" encoding="utf-8"?>
<!-- Generator: Adobe Illustrator 25.0.1, SVG Export Plug-In . SVG Version: 6.00 Build 0)  -->
<svg version="1.1" id="レイヤー_1" xmlns="http://www.w3.org/2000/svg" xmlns:xlink="http://www.w3.org/1999/xlink" x="0px"
	 y="0px" viewBox="0 0 82 78" style="enable-background:new 0 0 82 78;" xml:space="preserve">
<style type="text/css">
	.st0{fill:#C8C8C8;}
	.st1{fill:none;stroke:#C7C7C7;stroke-width:3;stroke-linecap:round;stroke-linejoin:round;}
	.st2{fill:none;stroke:#C8C8C8;stroke-width:3;stroke-linecap:round;stroke-linejoin:round;}
</style>
<g id="グループ_2954" transform="translate(-74 -26.3)">
	<path id="パス_18182" class="st0" d="M-86.5,40.2h6.9v-2.1c0-0.8,0.3-1.6,0.9-2.2c1.2-1.2,3.2-1.2,4.5,0c0.6,0.6,0.9,1.4,0.9,2.2
		v2.1h6.9v-2.1c0-1.7,1.5-3.1,3.2-3.1c1.7,0,3,1.4,3.1,3.1v2.1h6.9v-2c0-0.8,0.3-1.6,0.9-2.2c1.2-1.2,3.2-1.2,4.5,0
		c0.6,0.6,0.9,1.4,0.9,2.2v2h1c2.9,0,5.3,2.4,5.3,5.3c0,0,0,0,0,0v9.9c0,0.5-0.4,1-0.9,1c-0.5,0-1-0.4-1-0.9c0,0,0,0,0-0.1v-2.8
		h-25.3c-0.5,0-1-0.4-1-0.9s0.4-1,0.9-1c0,0,0,0,0.1,0h25.3v-5.3c0-1.9-1.5-3.4-3.4-3.4h-1v2c0,1.7-1.4,3.1-3.2,3.2
		c-0.8,0-1.6-0.3-2.2-0.9c-0.6-0.6-0.9-1.4-0.9-2.2v-2h-6.9v2c0,0.8-0.3,1.6-0.9,2.2c-1.2,1.2-3.2,1.2-4.5,0
		c-0.6-0.6-0.9-1.4-0.9-2.2v-2h-6.9v2c0,1.7-1.5,3.1-3.2,3.1c-1.7,0-3-1.4-3.1-3.1v-2h-6.9v2c0,1.7-1.5,3.1-3.2,3.1
		c-1.7,0-3-1.4-3.1-3.1v-2h-1.1c-1.9,0-3.4,1.5-3.4,3.4v5.3H-72c0.5,0,1,0.4,1,0.9s-0.4,1-0.9,1c0,0,0,0-0.1,0h-25.3v28.1
		c0,0.5-0.5,0.9-1,0.9c-0.5,0-0.9-0.4-0.9-0.9V45.5c0-2.9,2.4-5.3,5.3-5.3c0,0,0,0,0,0h1.1v-2.1c0-0.8,0.3-1.6,0.9-2.2
		c1.2-1.2,3.2-1.2,4.5,0c0.6,0.6,0.9,1.4,0.9,2.2L-86.5,40.2z M-48.6,77.2c0-0.5,0.4-1,0.9-1c0.5,0,1,0.4,1,0.9c0,0,0,0,0,0.1v8.4
		c0,0.2-0.1,0.5-0.3,0.7l-5.8,6.8c-0.3,0.4-0.9,0.5-1.3,0.1s-0.5-0.9-0.1-1.3l5.6-6.6L-48.6,77.2z M-54.4,76.2
		c-0.4,0.3-1,0.2-1.3-0.2c-0.3-0.4-0.2-1,0.2-1.3c0,0,0,0,0,0c1.1-0.8,2.4-1.5,3.7-1.9c3.1-1,6.5-0.8,9.4,0.4V59.7
		c0-0.5,0.4-1,0.9-1c0.5,0,1,0.4,1,0.9c0,0,0,0,0,0.1v14.5c0.8,0.5,1.6,1.1,2.3,1.8c5.2,5.2,5.2,13.7,0,19c-5.2,5.2-13.7,5.2-19,0
		c-0.9-0.9-1.7-2-2.3-3.1h-34.8c-2.7,0-4.9-2.2-4.9-4.9v-1.9c0-0.5,0.5-0.9,1-0.9c0.5,0,0.9,0.4,0.9,0.9v1.9c0,0.8,0.3,1.6,0.9,2.1
		c0.6,0.6,1.3,0.9,2.2,0.9h34c-0.5-1.4-0.8-2.9-0.8-4.4c0-1.3,0.2-2.7,0.6-3.9c0.4-1.3,1-2.5,1.7-3.6c0.3-0.4,0.9-0.5,1.3-0.3
		c0,0,0,0,0,0c0.4,0.3,0.5,0.9,0.2,1.3c-1.3,1.9-2,4.2-2,6.5c0,6.4,5.1,11.5,11.5,11.5c6.4,0,11.5-5.1,11.5-11.5
		c0-3.1-1.2-6-3.4-8.2c-3.1-3.1-7.6-4.2-11.7-2.8C-52.4,75-53.4,75.5-54.4,76.2L-54.4,76.2z M-58.6,56.7h11.2c0.5,0,1,0.4,1,1v11.2
		c0,0.5-0.4,1-1,1h-11.2c-0.5,0-1-0.4-1-1V57.7C-59.5,57.1-59.1,56.7-58.6,56.7L-58.6,56.7z M-48.3,58.6h-9.3V68h9.3L-48.3,58.6z
		 M-75.4,72.8h11.2c0.5,0,1,0.4,1,1V85c0,0.5-0.4,1-1,1h-11.2c-0.5,0-1-0.4-1-1V73.8C-76.4,73.2-76,72.8-75.4,72.8L-75.4,72.8z
		 M-65.2,74.7h-9.3V84h9.3V74.7z M-75.4,56.7h11.2c0.5,0,1,0.4,1,1v11.2c0,0.5-0.4,1-1,1h-11.2c-0.5,0-1-0.4-1-1V57.7
		C-76.4,57.1-76,56.7-75.4,56.7L-75.4,56.7z M-65.2,58.6h-9.3v9.3h9.3V58.6z M-92.3,72.8h11.2c0.5,0,1,0.4,1,1V85c0,0.5-0.4,1-1,1
		h-11.2c-0.5,0-1-0.4-1-1V73.8C-93.3,73.2-92.9,72.8-92.3,72.8z M-82,74.7h-9.3V84h9.3V74.7z M-92.3,56.7h11.2c0.5,0,1,0.4,1,1v11.2
		c0,0.5-0.4,1-1,1h-11.2c-0.5,0-1-0.4-1-1V57.7C-93.3,57.1-92.9,56.7-92.3,56.7L-92.3,56.7z M-82,58.6h-9.3v9.3h9.3V58.6z M-50,36.9
		c-0.3,0-0.7,0.1-0.9,0.4c-0.2,0.2-0.4,0.5-0.4,0.9v6c0,0.7,0.6,1.2,1.3,1.3c0.3,0,0.6-0.1,0.9-0.4c0.2-0.2,0.4-0.6,0.4-0.9v-6
		c0-0.3-0.1-0.6-0.4-0.9C-49.3,37-49.6,36.9-50,36.9L-50,36.9z M-88.8,37.2c-0.2-0.2-0.6-0.4-0.9-0.4c-0.3,0-0.7,0.1-0.9,0.4
		c-0.2,0.2-0.4,0.6-0.4,0.9v6c0,0.3,0.1,0.7,0.4,0.9c0.2,0.2,0.6,0.4,0.9,0.4c0.3,0,0.7-0.1,0.9-0.4c0.2-0.2,0.4-0.6,0.4-0.9v-6
		C-88.4,37.8-88.6,37.5-88.8,37.2L-88.8,37.2z M-76.4,36.8c-0.3,0-0.7,0.1-0.9,0.4c-0.2,0.2-0.4,0.6-0.4,0.9v6
		c0,0.3,0.1,0.7,0.4,0.9c0.2,0.2,0.6,0.4,0.9,0.4c0.3,0,0.6-0.1,0.9-0.4c0.2-0.2,0.4-0.6,0.4-0.9v-6C-75.2,37.4-75.8,36.9-76.4,36.8
		L-76.4,36.8z M-63.2,36.8c-0.3,0-0.7,0.1-0.9,0.4c-0.2,0.2-0.4,0.6-0.4,0.9v6c0,0.3,0.1,0.7,0.4,0.9c0.2,0.2,0.6,0.4,0.9,0.4
		c0.7,0,1.2-0.6,1.3-1.3v-6c0-0.3-0.1-0.7-0.4-0.9C-62.6,37-62.9,36.9-63.2,36.8L-63.2,36.8z"/>
</g>
<g id="グループ_2969" transform="translate(-126.9 -11.2)">
	<g id="グループ_2956" transform="translate(126.9 11.2)">
		<g id="グループ_2955">
			<path id="パス_18183" class="st0" d="M62.8,54.8L54.7,52c0.1-0.4,0.1-0.9,0-1.3c-0.2-0.8-0.7-1.4-1.4-1.8l-4.4-2.1v-1.4
				c3.9-0.7,7.7-1.7,11.4-2.9c0.9-0.3,1.6-0.9,1.9-1.7c0.4-0.8,0.4-1.7,0.1-2.6c-0.8-2.1-1.1-4.4-1-6.6v-9
				c0.1-11.1-8.9-20.2-20-20.3s-20.2,8.9-20.3,20c0,0.1,0,0.2,0,0.3v9c0.1,2.2-0.3,4.5-1,6.6c-0.3,0.8-0.3,1.8,0.1,2.6
				c0.4,0.8,1.1,1.4,1.9,1.7c3.7,1.3,7.5,2.2,11.4,2.9v1.4l-4.4,2.1c-0.7,0.3-1.2,1-1.4,1.8c-0.1,0.4-0.1,0.9,0,1.3l-8.1,2.9
				c-3.1,1.1-5.2,4.1-5.2,7.4v11c0,0.6,0.5,1.1,1.1,1.1c0.6,0,1.1-0.5,1.1-1.1v-11c0-2.4,1.5-4.6,3.8-5.4l8.6-3l1.1,1.4l-1.1,1.7
				c-0.6,1-0.7,2.2-0.2,3.2l2.4,5.2h-3.2v-1.2c0-0.6-0.5-1.1-1.1-1.1c-0.6,0-1.1,0.5-1.1,1.1v1.2h-4.6c-0.6,0-1.1,0.5-1.1,1
				c0,0,0,0,0,0v6.8c0,0.6,0.5,1.1,1,1.1c0,0,0,0,0,0H32c0.6,0,1.1-0.5,1.1-1c0,0,0,0,0,0v-2.5l1.4,3c0.2,0.4,0.5,0.6,1,0.6
				c0.2,0,0.3,0,0.4-0.1c0.5-0.2,0.8-0.9,0.5-1.4c0,0,0,0,0,0l-6.2-13.5c-0.2-0.4-0.1-0.8,0.1-1.2l1.6-2.3c0.2-0.4,0.2-0.9,0-1.2
				l-2.2-2.9c-0.1-0.1-0.1-0.3-0.1-0.5c0-0.2,0.1-0.3,0.3-0.4l3.8-1.8l2.3,8.7c0.1,0.6,0.7,0.9,1.3,0.7c0.6-0.1,0.9-0.7,0.7-1.3l0,0
				l-0.1-0.3c2.1,0.7,4.3,0.7,6.4,0L41,69l-1.9-7.4c-0.1-0.6-0.7-0.9-1.3-0.7c-0.6,0.1-0.9,0.7-0.7,1.3l3,11.3
				c0.1,0.5,0.5,0.8,1,0.8c0.5,0,0.9-0.3,1-0.8L48.5,49l3.8,1.8c0.2,0.1,0.3,0.2,0.3,0.4c0,0.2,0,0.3-0.1,0.5l-2.2,2.9
				c-0.3,0.4-0.3,0.8,0,1.2l1.6,2.3c0.2,0.3,0.3,0.8,0.1,1.2l-6.2,13.5c-0.2,0.5,0,1.1,0.5,1.4c0,0,0,0,0,0c0.1,0.1,0.3,0.1,0.4,0.1
				c0.4,0,0.8-0.2,1-0.6l6.2-13.5c0.5-1,0.4-2.3-0.2-3.2l-1.1-1.7l1.1-1.4l8.6,3c2.3,0.8,3.8,3,3.8,5.4v11c0,0.6,0.5,1.1,1.1,1.1
				s1.1-0.5,1.1-1.1l0,0v-11C68,58.9,65.9,55.9,62.8,54.8z M31,72.1h-9.2v-4.6h3.5v0.1c0,0.6,0.5,1.1,1.1,1.1c0.6,0,1.1-0.5,1.1-1.1
				v-0.1H31L31,72.1L31,72.1z M60.3,39.8c-0.1,0.3-0.4,0.5-0.7,0.6c-3,1-6,1.8-9.1,2.5c3.9-3,6.2-7.6,6.2-12.5v-5.2
				c0.8,0.2,1.6,0.3,2.4,0.4v5.8c-0.1,2.5,0.3,5,1.2,7.4C60.5,39.2,60.4,39.5,60.3,39.8L60.3,39.8z M46.8,47.3L45,54.2
				c-2.4,1.3-5.4,1.3-7.8,0l-1.8-6.9V45c3.7,1.4,7.7,1.4,11.4,0L46.8,47.3L46.8,47.3z M41.1,44c-7.5,0-13.6-6.1-13.6-13.6v-4.5
				c0-0.6-0.5-1.1-1.1-1.1c-0.6,0-1.1,0.5-1.1,1.1v4.5c0,4.9,2.3,9.6,6.2,12.5c-3.1-0.6-6.1-1.5-9.1-2.5c-0.3-0.1-0.6-0.3-0.7-0.6
				c-0.1-0.3-0.1-0.6,0-0.9c0.9-2.4,1.3-4.9,1.2-7.4v-7.9c0.2,0,0.3-0.1,0.4-0.1c4.3-1.4,8.3-3.5,11.9-6.3c0.8-0.6,2-0.7,2.8,0
				c3.2,2.4,6.8,4.3,10.5,5.7c0.5,0.2,1.2,0,1.4-0.6s0-1.2-0.6-1.4c0,0,0,0,0,0c-3.6-1.3-7-3.1-10-5.4c-1.6-1.2-3.8-1.2-5.4,0.1
				c-3.3,2.6-7,4.5-10.9,5.8c0.6-10,9.2-17.6,19.1-17c9.6,0.6,17,8.5,17,18.1v1c-1.8-0.3-3.6-0.7-5.4-1.2c-0.6-0.2-1.1,0.2-1.3,0.7
				s0.2,1.1,0.7,1.3c0.5,0.1,1,0.3,1.5,0.4v5.6C54.7,37.9,48.6,44,41.1,44L41.1,44z"/>
		</g>
	</g>
	<g id="グループ_2958" transform="translate(145.563 33.353)">
		<g id="グループ_2957">
			<path id="パス_18184" class="st0" d="M16.8,1.6h-2.3c-0.6,0-1.1,0.5-1.1,1.1s0.5,1.1,1.1,1.1h2.3c0.6,0,1.1-0.5,1.1-1.1
				S17.4,1.6,16.8,1.6L16.8,1.6z"/>
		</g>
	</g>
	<g id="グループ_2960" transform="translate(159.553 33.353)">
		<g id="グループ_2959">
			<path id="パス_18185" class="st0" d="M16.3,1.6H14C13.5,1.6,13,2,13,2.6s0.5,1.1,1.1,1.1h2.3c0.6,0,1.1-0.5,1.1-1.1
				S16.9,1.6,16.3,1.6z"/>
		</g>
	</g>
	<g id="グループ_2962" transform="translate(168.899 74.169)">
		<g id="グループ_2961">
			<path id="パス_18186" class="st0" d="M19.3,3h-1.8V1.2c0-0.6-0.5-1.1-1.1-1.1s-1.1,0.5-1.1,1.1V3h-1.8c-0.6,0-1.1,0.5-1.1,1.1
				s0.5,1.1,1.1,1.1h1.8v1.8c0,0.6,0.5,1.1,1.1,1.1s1.1-0.5,1.1-1.1l0,0V5.1h1.8c0.6,0,1.1-0.5,1.1-1c0,0,0,0,0,0
				C20.4,3.4,19.9,3,19.3,3z"/>
		</g>
	</g>
	<g id="グループ_2964" transform="translate(146.731 36.843)">
		<g id="グループ_2963" transform="translate(0 0)">
			<path id="パス_18187" class="st0" d="M14.5,1.5c-0.6,0-1.1,0.5-1.1,1c0,0,0,0,0,0v1.1c0,0.6,0.5,1.1,1.1,1.1
				c0.6,0,1.1-0.5,1.1-1.1V2.5C15.5,1.9,15.1,1.5,14.5,1.5z"/>
		</g>
	</g>
	<g id="グループ_2966" transform="translate(160.721 36.843)">
		<g id="グループ_2965" transform="translate(0 0)">
			<path id="パス_18188" class="st0" d="M14,1.5c-0.6,0-1.1,0.5-1.1,1c0,0,0,0,0,0v1.1c0,0.6,0.5,1.1,1.1,1.1
				c0.6,0,1.1-0.5,1.1-1.1V2.5C15.1,1.9,14.6,1.5,14,1.5z"/>
		</g>
	</g>
	<g id="グループ_2968" transform="translate(148.476 43.261)">
		<g id="グループ_2967">
			<path id="パス_18189" class="st0" d="M24.6,1.2H14.4c-0.6,0-1.1,0.5-1.1,1c0,0,0,0,0,0c0,3.1,2.7,5.6,6.1,5.6s6.1-2.5,6.1-5.6
				C25.6,1.7,25.1,1.2,24.6,1.2C24.6,1.2,24.6,1.2,24.6,1.2z M19.5,5.7c-1.6,0.1-3.2-0.9-3.8-2.4h7.6C22.7,4.8,21.1,5.8,19.5,5.7z"
				/>
		</g>
	</g>
</g>
<g id="グループ_2973" transform="translate(-79.2 -26.3)">
	<path id="パス_18199" class="st0" d="M240.7,55.6c0-2.8-2.3-5-5.1-5c-1.3,0-2.6,0.5-3.6,1.5l-3.3,3.3l-3.7,3.7V48.2
		c4.3-0.6,7.2-4.6,6.6-8.8c-0.6-3.8-3.8-6.7-7.7-6.7h-44.5c-4.3,0-7.8,3.5-7.8,7.8v55.6c0,0.6,0.5,1.1,1.1,1.1c0,0,0,0,0,0h5.6v3.3
		c0,0.6,0.5,1.1,1.1,1.1c0,0,0,0,0,0H224c0.6,0,1.1-0.5,1.1-1.1c0,0,0,0,0,0V73.2l10.8-10.8l1.1-1.1c-0.6,2.9-2,5.5-4.1,7.6
		l-5.3,5.3l1.6,1.6l5.3-5.3c3.1-3.1,4.9-7.4,5-11.8C240.3,57.8,240.7,56.7,240.7,55.6L240.7,55.6z M233.7,53.6
		c1.1-1.1,2.9-1.1,4-0.1s1.1,2.9,0.1,4c0,0,0,0-0.1,0.1l-2.5,2.5l-4-4L233.7,53.6z M229.6,57.6l1.2,1.2l-14,14l-1.2-1.2L229.6,57.6z
		 M203.1,87l2.3-4.6l3.4,3.4l-4.6,2.3L203.1,87z M206.7,80.6l7.3-7.3l4,4l-7.3,7.3L206.7,80.6z M224,34.9c3.1,0,5.5,2.6,5.5,5.6
		c0,3-2.5,5.4-5.5,5.5H185c3.1-3,3.1-7.9,0.1-11c0,0-0.1-0.1-0.1-0.1H224z M180.6,45.9v-3.2c0-0.6,0.5-1.1,1.1-1.1c0,0,0,0,0,0h3.2
		C184.5,43.8,182.8,45.5,180.6,45.9z M174,95V40.5c0-3.1,2.5-5.6,5.6-5.6c2.6,0,4.9,1.9,5.4,4.5h-3.2c-1.8,0-3.3,1.5-3.3,3.3V95H174
		z M222.9,99.5h-42.3V48.3h42.3v12.9l-4.9,4.9h-32.9v2.2h30.7l-2.2,2.2h-28.5v2.2h26.2l-7,7c-0.1,0.1-0.1,0.2-0.2,0.3h0l-3.3,6.7
		c-0.2,0.4-0.1,0.9,0.2,1.3l0.3,0.3l-2.6,2.6l1.6,1.6l2.6-2.6l0.3,0.3c0.2,0.2,0.5,0.3,0.8,0.3c0.2,0,0.3,0,0.5-0.1l6.7-3.3v0
		c0.1,0,0.2-0.1,0.3-0.2l8.9-8.9l2.6-2.6L222.9,99.5z M219.6,75.7l-1.2-1.2l14-14l1.2,1.2L219.6,75.7z"/>
	<path id="パス_18200" class="st0" d="M185.1,52.7h33.4V55h-33.4V52.7z"/>
	<path id="パス_18201" class="st0" d="M185.1,57.2h33.4v2.2h-33.4V57.2z"/>
	<path id="パス_18202" class="st0" d="M185.1,61.6h33.4v2.2h-33.4V61.6z"/>
	<path id="パス_18203" class="st0" d="M185.1,88.4h12.2v2.2h-12.2V88.4z"/>
	<path id="パス_18204" class="st0" d="M185.1,92.8h33.4V95h-33.4V92.8z"/>
</g>
<g id="グループ_2974" transform="translate(-169.523 -2343.019)">
	<line id="線_78" class="st1" x1="293.6" y1="2495.3" x2="293.6" y2="2497.4"/>
	<line id="線_79" class="st1" x1="307.5" y1="2495.3" x2="307.5" y2="2497.4"/>
	<path id="パス_18205" class="st1" d="M304.3,2508.7c-2.3,1.8-5.7,1.8-7.6,0"/>
	<path id="パス_18206" class="st1" d="M286.4,2477.2c-5,10.7-7.3,23-3.4,34.4c1.6,4.7,11,10.2,17.2,10.2s14.5-5.7,16.8-10.2
		c3-6,2.3-3.4,2.4-10.3"/>
	<path id="パス_18207" class="st1" d="M318.6,2526.6c3,0,5.5-2.6,6-3c11.5-10.1,7-42.2-1.2-53.2c-11-13.4-29.9-12.5-39.4,0
		c-12.2,16-9.8,51.3-3.7,53.2"/>
	<path id="パス_18208" class="st1" d="M301.2,2487.3c4.5-0.6,4.2-12.2,5-10.4c2.1,5.4,18.4,12.4,12.4,46.7"/>
	<path id="パス_18218" class="st1" d="M288.8,2486.8c6,1.5,9.4-5.6,9.8-8.5"/>
	<path id="パス_18209" class="st1" d="M283.8,2531.3c4.1-2.1,6.8-5.4,6.8-11.2"/>
	<path id="パス_18210" class="st1" d="M317.8,2531.3c-4.1-2.1-6.8-5.4-6.8-11.2"/>
</g>
<g id="グループ_2975" transform="translate(-869.63 -918.742)">
	<path id="パス_18211" class="st2" d="M944.7,1072.7c4.2-1,7.8-5.1,8.6-10"/>
	<path id="パス_18212" class="st2" d="M953.2,1062.6c0.6,2.2,1.6,4.3,2.9,6.1c1.3,1.7,3.1,3,5.1,3.7"/>
	<path id="パス_18213" class="st2" d="M944.6,1072.8c4,1,7.3,4.6,8.4,9.1"/>
	<path id="パス_18214" class="st2" d="M953.2,1082.2c0.3-2.3,1.3-4.4,2.9-6c1.6-1.5,3.4-2.7,5.3-3.6"/>
</g>
<g id="グループ_2977" transform="translate(-1588.092 -1983.287)">
	<path id="パス_18216" class="st1" d="M1592.2,2116.8h12c2.2,0,4,1.8,4,4v24c0,2.2-1.8,4-4,4h-36c-2.2,0-4-1.8-4-4v-24
		c0-2.2,1.8-4,4-4h4l4-4h12L1592.2,2116.8z"/>
	<circle id="楕円形_153" class="st1" cx="1582.1" cy="2133.7" r="10"/>
	<circle id="楕円形_154" class="st0" cx="1601.1" cy="2125.7" r="2"/>
	<circle id="楕円形_155" class="st1" cx="1582.1" cy="2133.7" r="4"/>
</g>
<g id="グループ_2978" transform="matrix(-0.105, -0.995, 0.995, -0.105, -85.475, 1782.606)">
	
		<rect id="長方形_2004" x="1638.7" y="214" transform="matrix(-0.7071 -0.7071 0.7071 -0.7071 2645.3604 1534.126)" class="st0" width="3.5" height="10.3"/>
	
		<rect id="長方形_2005" x="1618.8" y="213.2" transform="matrix(-2.531423e-06 -1 1 -2.531423e-06 1409.1272 1838.8789)" class="st0" width="10.4" height="3.5"/>
</g>
</svg>
