<?xml version="1.0" encoding="utf-8"?>
<!-- Generator: Adobe Illustrator 25.0.1, SVG Export Plug-In . SVG Version: 6.00 Build 0)  -->
<svg version="1.1" id="レイヤー_1" xmlns="http://www.w3.org/2000/svg" xmlns:xlink="http://www.w3.org/1999/xlink" x="0px"
	 y="0px" viewBox="0 0 82 78" style="enable-background:new 0 0 82 78;" xml:space="preserve">
<style type="text/css">
	.st0{fill:#C8C8C8;}
	.st1{fill:#C7C7C7;}
	.st2{fill:none;stroke:#C7C7C7;stroke-width:3;stroke-linecap:round;stroke-linejoin:round;}
</style>
<g id="グループ_2954" transform="translate(-74 -26.3)">
	<path id="パス_18182" class="st0" d="M101.2,44.8h5.7v-1.7c0-0.7,0.3-1.3,0.8-1.8c1-1,2.6-1,3.7,0c0.5,0.5,0.8,1.1,0.8,1.8v1.7
		h5.7v-1.7c0-1.4,1.2-2.6,2.6-2.5c1.4,0,2.5,1.1,2.5,2.5v1.7h5.7v-1.7c0-0.7,0.3-1.3,0.8-1.8c1-1,2.6-1,3.7,0
		c0.5,0.5,0.8,1.1,0.8,1.8v1.7h0.8c2.4,0,4.4,2,4.4,4.4c0,0,0,0,0,0v8.1c0,0.4-0.3,0.8-0.8,0.8c-0.4,0-0.8-0.3-0.8-0.8
		c0,0,0,0,0-0.1V55h-20.8c-0.4,0-0.8-0.3-0.8-0.8c0-0.4,0.3-0.8,0.8-0.8c0,0,0,0,0.1,0h20.7v-4.3c0-1.6-1.3-2.8-2.8-2.8h-0.8V48
		c0,1.4-1.2,2.6-2.6,2.6c-0.7,0-1.3-0.3-1.8-0.8c-0.5-0.5-0.8-1.1-0.8-1.8v-1.7h-5.7V48c0,0.7-0.3,1.3-0.8,1.8c-1,1-2.6,1-3.7,0
		c-0.5-0.5-0.8-1.1-0.8-1.8v-1.6H112V48c0,1.4-1.2,2.6-2.6,2.5c-1.4,0-2.5-1.1-2.5-2.5v-1.6h-5.7V48c0,1.4-1.2,2.6-2.6,2.5
		c-1.4,0-2.5-1.1-2.5-2.5v-1.6h-0.9c-1.5,0-2.8,1.3-2.8,2.8v4.3h20.8c0.4,0,0.8,0.3,0.8,0.8c0,0.4-0.3,0.8-0.8,0.8c0,0,0,0-0.1,0
		H92.3v23c0,0.4-0.4,0.8-0.8,0.8c-0.4,0-0.7-0.3-0.8-0.8V49.1c0-2.4,2-4.4,4.4-4.4c0,0,0,0,0,0H96v-1.7c0-0.7,0.3-1.3,0.8-1.8
		c1-1,2.6-1,3.7,0c0.5,0.5,0.8,1.1,0.8,1.8L101.2,44.8z M132.3,75.1c0-0.4,0.3-0.8,0.8-0.8c0.4,0,0.8,0.3,0.8,0.8c0,0,0,0,0,0.1V82
		c0,0.2-0.1,0.4-0.2,0.5l-4.8,5.6c-0.3,0.3-0.8,0.4-1.1,0.1c-0.3-0.3-0.4-0.8-0.1-1.1l4.6-5.4L132.3,75.1z M127.5,74.3
		c-0.3,0.2-0.8,0.2-1.1-0.2c-0.3-0.3-0.2-0.8,0.2-1.1c0,0,0,0,0,0c0.9-0.7,2-1.2,3.1-1.6c2.5-0.8,5.3-0.7,7.7,0.4V60.8
		c0-0.4,0.3-0.8,0.8-0.8c0.4,0,0.8,0.3,0.8,0.8c0,0,0,0,0,0.1v11.9c0.7,0.4,1.3,0.9,1.9,1.5c4.3,4.3,4.3,11.3,0,15.5
		c-4.3,4.3-11.3,4.3-15.5,0c-0.8-0.8-1.4-1.6-1.9-2.6H94.8c-2.2,0-4.1-1.8-4.1-4.1v-1.5c0-0.4,0.4-0.8,0.8-0.8
		c0.4,0,0.7,0.3,0.8,0.8v1.5c0,0.7,0.3,1.3,0.7,1.8c0.5,0.5,1.1,0.7,1.8,0.7h27.8c-0.4-1.2-0.6-2.4-0.6-3.6c0-1.1,0.2-2.2,0.5-3.2
		c0.3-1,0.8-2,1.4-2.9c0.2-0.4,0.7-0.4,1.1-0.2c0,0,0,0,0,0c0.4,0.2,0.4,0.7,0.2,1.1c-1.1,1.6-1.6,3.4-1.6,5.3
		c0,5.2,4.2,9.4,9.4,9.4c5.2,0,9.4-4.2,9.4-9.4c0-2.5-1-4.9-2.8-6.7c-2.5-2.5-6.2-3.4-9.6-2.3C129.2,73.3,128.3,73.7,127.5,74.3
		L127.5,74.3z M124.1,58.3h9.2c0.4,0,0.8,0.4,0.8,0.8v9.2c0,0.4-0.4,0.8-0.8,0.8h-9.2c-0.4,0-0.8-0.4-0.8-0.8v-9.2
		C123.3,58.7,123.7,58.3,124.1,58.3L124.1,58.3z M132.5,59.9h-7.6v7.6h7.6L132.5,59.9z M110.3,71.5h9.2c0.4,0,0.8,0.4,0.8,0.8v9.2
		c0,0.4-0.4,0.8-0.8,0.8h-9.2c-0.4,0-0.8-0.4-0.8-0.8v-9.2C109.5,71.9,109.8,71.5,110.3,71.5L110.3,71.5z M118.7,73.1H111v7.6h7.6
		V73.1z M110.3,58.3h9.2c0.4,0,0.8,0.4,0.8,0.8v9.2c0,0.4-0.4,0.8-0.8,0.8h-9.2c-0.4,0-0.8-0.4-0.8-0.8v-9.2
		C109.5,58.7,109.8,58.3,110.3,58.3L110.3,58.3z M118.7,59.9H111v7.6h7.6V59.9z M96.4,71.5h9.2c0.4,0,0.8,0.4,0.8,0.8v9.2
		c0,0.4-0.4,0.8-0.8,0.8h-9.2c-0.4,0-0.8-0.4-0.8-0.8v-9.2C95.6,71.9,96,71.5,96.4,71.5z M104.9,73.1h-7.6v7.6h7.6V73.1z M96.4,58.3
		h9.2c0.4,0,0.8,0.4,0.8,0.8v9.2c0,0.4-0.4,0.8-0.8,0.8h-9.2c-0.4,0-0.8-0.4-0.8-0.8v-9.2C95.6,58.7,96,58.3,96.4,58.3L96.4,58.3z
		 M104.9,59.9h-7.6v7.6h7.6V59.9z M131.1,42.1c-0.3,0-0.5,0.1-0.7,0.3c-0.2,0.2-0.3,0.4-0.3,0.7V48c0,0.6,0.5,1,1,1
		c0.3,0,0.5-0.1,0.7-0.3c0.2-0.2,0.3-0.5,0.3-0.7v-4.9c0-0.3-0.1-0.5-0.3-0.7C131.7,42.2,131.4,42.1,131.1,42.1L131.1,42.1z
		 M99.3,42.4c-0.2-0.2-0.5-0.3-0.7-0.3c-0.3,0-0.5,0.1-0.7,0.3c-0.2,0.2-0.3,0.5-0.3,0.7V48c0,0.3,0.1,0.5,0.3,0.7
		c0.2,0.2,0.5,0.3,0.7,0.3c0.3,0,0.5-0.1,0.7-0.3c0.2-0.2,0.3-0.5,0.3-0.7v-4.9C99.6,42.8,99.5,42.6,99.3,42.4L99.3,42.4z
		 M109.4,42.1c-0.3,0-0.5,0.1-0.7,0.3c-0.2,0.2-0.3,0.5-0.3,0.7V48c0,0.3,0.1,0.5,0.3,0.7c0.2,0.2,0.5,0.3,0.7,0.3
		c0.3,0,0.5-0.1,0.7-0.3c0.2-0.2,0.3-0.5,0.3-0.7v-4.9C110.5,42.5,110,42.1,109.4,42.1L109.4,42.1z M120.3,42.1
		c-0.3,0-0.5,0.1-0.7,0.3c-0.2,0.2-0.3,0.5-0.3,0.7V48c0,0.3,0.1,0.5,0.3,0.7c0.2,0.2,0.5,0.3,0.7,0.3c0.6,0,1-0.5,1-1v-4.9
		c0-0.3-0.1-0.5-0.3-0.7C120.8,42.2,120.6,42.1,120.3,42.1L120.3,42.1z"/>
</g>
<g id="グループ_2969" transform="translate(-126.9 -11.2)">
	<g id="グループ_2956" transform="translate(126.9 11.2)">
		<g id="グループ_2955">
			<path id="パス_18183" class="st0" d="M-37.2,54.8l-8.1-2.9c0.1-0.4,0.1-0.9,0-1.3c-0.2-0.8-0.7-1.4-1.4-1.8l-4.4-2.1v-1.4
				c3.9-0.7,7.7-1.7,11.4-2.9c0.9-0.3,1.6-0.9,1.9-1.7c0.4-0.8,0.4-1.7,0.1-2.6c-0.8-2.1-1.1-4.4-1-6.6v-9
				c0.1-11.1-8.9-20.2-20-20.3s-20.2,8.9-20.3,20c0,0.1,0,0.2,0,0.3v9c0.1,2.2-0.3,4.5-1,6.6c-0.3,0.8-0.3,1.8,0.1,2.6
				c0.4,0.8,1.1,1.4,1.9,1.7c3.7,1.3,7.5,2.2,11.4,2.9v1.4l-4.4,2.1c-0.7,0.3-1.2,1-1.4,1.8c-0.1,0.4-0.1,0.9,0,1.3l-8.1,2.9
				c-3.1,1.1-5.2,4.1-5.2,7.4v11c0,0.6,0.5,1.1,1.1,1.1c0.6,0,1.1-0.5,1.1-1.1v-11c0-2.4,1.5-4.6,3.8-5.4l8.6-3l1.1,1.4l-1.1,1.7
				c-0.6,1-0.7,2.2-0.2,3.2l2.4,5.2h-3.2v-1.2c0-0.6-0.5-1.1-1.1-1.1s-1.1,0.5-1.1,1.1v1.2h-4.6c-0.6,0-1.1,0.5-1.1,1c0,0,0,0,0,0
				v6.8c0,0.6,0.5,1.1,1,1.1c0,0,0,0,0,0H-68c0.6,0,1.1-0.5,1.1-1c0,0,0,0,0,0v-2.5l1.4,3c0.2,0.4,0.5,0.6,1,0.6
				c0.2,0,0.3,0,0.4-0.1c0.5-0.2,0.8-0.9,0.5-1.4c0,0,0,0,0,0l-6.2-13.5c-0.2-0.4-0.1-0.8,0.1-1.2l1.6-2.3c0.2-0.4,0.2-0.9,0-1.2
				l-2.2-2.9c-0.1-0.1-0.1-0.3-0.1-0.5c0-0.2,0.1-0.3,0.3-0.4l3.8-1.8l2.3,8.7c0.1,0.6,0.7,0.9,1.3,0.7c0.6-0.1,0.9-0.7,0.7-1.3l0,0
				l-0.1-0.3c2.1,0.7,4.3,0.7,6.4,0L-59,69l-1.9-7.4c-0.1-0.6-0.7-0.9-1.3-0.7c-0.6,0.1-0.9,0.7-0.7,1.3l3,11.3
				c0.1,0.5,0.5,0.8,1,0.8c0.5,0,0.9-0.3,1-0.8l6.4-24.5l3.8,1.8c0.2,0.1,0.3,0.2,0.3,0.4c0,0.2,0,0.3-0.1,0.5l-2.2,2.9
				c-0.3,0.4-0.3,0.8,0,1.2l1.6,2.3c0.2,0.3,0.3,0.8,0.1,1.2l-6.2,13.5c-0.2,0.5,0,1.1,0.5,1.4c0,0,0,0,0,0c0.1,0.1,0.3,0.1,0.4,0.1
				c0.4,0,0.8-0.2,1-0.6l6.2-13.5c0.5-1,0.4-2.3-0.2-3.2l-1.1-1.7l1.1-1.4l8.6,3c2.3,0.8,3.8,3,3.8,5.4v11c0,0.6,0.5,1.1,1.1,1.1
				c0.6,0,1.1-0.5,1.1-1.1l0,0v-11C-32,58.9-34.1,55.9-37.2,54.8z M-69,72.1h-9.2v-4.6h3.5v0.1c0,0.6,0.5,1.1,1.1,1.1
				c0.6,0,1.1-0.5,1.1-1.1v-0.1h3.5L-69,72.1L-69,72.1z M-39.7,39.8c-0.1,0.3-0.4,0.5-0.7,0.6c-3,1-6,1.8-9.1,2.5
				c3.9-3,6.2-7.6,6.2-12.5v-5.2c0.8,0.2,1.6,0.3,2.4,0.4v5.8c-0.1,2.5,0.3,5,1.2,7.4C-39.5,39.2-39.6,39.5-39.7,39.8L-39.7,39.8z
				 M-53.2,47.3l-1.8,6.9c-2.4,1.3-5.4,1.3-7.8,0l-1.8-6.9V45c3.7,1.4,7.7,1.4,11.4,0L-53.2,47.3L-53.2,47.3z M-58.9,44
				c-7.5,0-13.6-6.1-13.6-13.6v-4.5c0-0.6-0.5-1.1-1.1-1.1s-1.1,0.5-1.1,1.1v4.5c0,4.9,2.3,9.6,6.2,12.5c-3.1-0.6-6.1-1.5-9.1-2.5
				c-0.3-0.1-0.6-0.3-0.7-0.6c-0.1-0.3-0.1-0.6,0-0.9c0.9-2.4,1.3-4.9,1.2-7.4v-7.9c0.2,0,0.3-0.1,0.4-0.1c4.3-1.4,8.3-3.5,11.9-6.3
				c0.8-0.6,2-0.7,2.8,0c3.2,2.4,6.8,4.3,10.5,5.7c0.5,0.2,1.2,0,1.4-0.6s0-1.2-0.6-1.4c0,0,0,0,0,0c-3.6-1.3-7-3.1-10-5.4
				c-1.6-1.2-3.8-1.2-5.4,0.1c-3.3,2.6-7,4.5-10.9,5.8c0.6-10,9.2-17.6,19.1-17c9.6,0.6,17,8.5,17,18.1v1c-1.8-0.3-3.6-0.7-5.4-1.2
				c-0.6-0.2-1.1,0.2-1.3,0.7s0.2,1.1,0.7,1.3c0.5,0.1,1,0.3,1.5,0.4v5.6C-45.3,37.9-51.4,44-58.9,44L-58.9,44z"/>
		</g>
	</g>
	<g id="グループ_2958" transform="translate(145.563 33.353)">
		<g id="グループ_2957">
			<path id="パス_18184" class="st0" d="M-83.2,1.6h-2.3c-0.6,0-1.1,0.5-1.1,1.1s0.5,1.1,1.1,1.1h2.3c0.6,0,1.1-0.5,1.1-1.1
				S-82.6,1.6-83.2,1.6L-83.2,1.6z"/>
		</g>
	</g>
	<g id="グループ_2960" transform="translate(159.553 33.353)">
		<g id="グループ_2959">
			<path id="パス_18185" class="st0" d="M-83.7,1.6H-86C-86.5,1.6-87,2-87,2.6s0.5,1.1,1.1,1.1h2.3c0.6,0,1.1-0.5,1.1-1.1
				S-83.1,1.6-83.7,1.6z"/>
		</g>
	</g>
	<g id="グループ_2962" transform="translate(168.899 74.169)">
		<g id="グループ_2961">
			<path id="パス_18186" class="st0" d="M-80.7,3h-1.8V1.2c0-0.6-0.5-1.1-1.1-1.1c-0.6,0-1.1,0.5-1.1,1.1V3h-1.8
				c-0.6,0-1.1,0.5-1.1,1.1s0.5,1.1,1.1,1.1h1.8v1.8c0,0.6,0.5,1.1,1.1,1.1c0.6,0,1.1-0.5,1.1-1.1l0,0V5.1h1.8c0.6,0,1.1-0.5,1.1-1
				c0,0,0,0,0,0C-79.6,3.4-80.1,3-80.7,3z"/>
		</g>
	</g>
	<g id="グループ_2964" transform="translate(146.731 36.843)">
		<g id="グループ_2963" transform="translate(0 0)">
			<path id="パス_18187" class="st0" d="M-85.5,1.5c-0.6,0-1.1,0.5-1.1,1c0,0,0,0,0,0v1.1c0,0.6,0.5,1.1,1.1,1.1s1.1-0.5,1.1-1.1
				V2.5C-84.5,1.9-84.9,1.5-85.5,1.5z"/>
		</g>
	</g>
	<g id="グループ_2966" transform="translate(160.721 36.843)">
		<g id="グループ_2965" transform="translate(0 0)">
			<path id="パス_18188" class="st0" d="M-86,1.5c-0.6,0-1.1,0.5-1.1,1c0,0,0,0,0,0v1.1c0,0.6,0.5,1.1,1.1,1.1
				c0.6,0,1.1-0.5,1.1-1.1V2.5C-84.9,1.9-85.4,1.5-86,1.5z"/>
		</g>
	</g>
	<g id="グループ_2968" transform="translate(148.476 43.261)">
		<g id="グループ_2967">
			<path id="パス_18189" class="st0" d="M-75.4,1.2h-10.1c-0.6,0-1.1,0.5-1.1,1c0,0,0,0,0,0c0,3.1,2.7,5.6,6.1,5.6
				c3.4,0,6.1-2.5,6.1-5.6C-74.4,1.7-74.9,1.2-75.4,1.2C-75.4,1.2-75.4,1.2-75.4,1.2z M-80.5,5.7c-1.6,0.1-3.2-0.9-3.8-2.4h7.6
				C-77.3,4.8-78.9,5.8-80.5,5.7z"/>
		</g>
	</g>
</g>
<g id="グループ_2973" transform="translate(-79.2 -26.3)">
	<path id="パス_18199" class="st0" d="M239.2,54.7c0-2.7-2.2-4.9-4.9-4.9c-1.3,0-2.5,0.5-3.4,1.4l-3.2,3.2l-3.5,3.5V47.6
		c4.1-0.6,6.9-4.4,6.4-8.5c-0.5-3.7-3.7-6.4-7.4-6.4h-42.9c-4.1,0-7.5,3.4-7.5,7.5v53.6c0,0.6,0.5,1.1,1.1,1.1c0,0,0,0,0,0h5.4v3.2
		c0,0.6,0.5,1.1,1.1,1.1c0,0,0,0,0,0h42.9c0.6,0,1.1-0.5,1.1-1.1c0,0,0,0,0,0V71.7l10.4-10.4l1.1-1.1c-0.6,2.8-1.9,5.3-3.9,7.3
		l-5.1,5.1l1.5,1.5l5.1-5.1c3-3,4.8-7.1,4.8-11.4C238.8,56.9,239.2,55.8,239.2,54.7L239.2,54.7z M232.4,52.8c1-1.1,2.8-1.1,3.8-0.1
		c1.1,1,1.1,2.8,0.1,3.8c0,0,0,0-0.1,0.1l-2.4,2.4l-3.9-3.9L232.4,52.8z M228.5,56.7l1.2,1.2l-13.5,13.5l-1.2-1.2L228.5,56.7z
		 M203,85l2.2-4.4l3.3,3.3l-4.4,2.2L203,85z M206.4,78.8l7.1-7.1l3.9,3.8l-7.1,7.1L206.4,78.8z M223.1,34.8c3,0,5.3,2.5,5.3,5.4
		c0,2.9-2.4,5.2-5.3,5.3h-37.6c3-2.9,3-7.6,0.1-10.6c0,0-0.1-0.1-0.1-0.1H223.1z M181.3,45.5v-3.1c0-0.6,0.5-1.1,1.1-1.1
		c0,0,0,0,0,0h3.1C185.1,43.4,183.4,45,181.3,45.5z M174.9,92.7V40.2c0-3,2.4-5.4,5.4-5.4c2.5,0,4.7,1.8,5.2,4.3h-3.1
		c-1.8,0-3.2,1.4-3.2,3.2v50.4H174.9z M222,97h-40.7V47.7H222v12.4l-4.7,4.7h-31.7V67h29.6l-2.1,2.1h-27.4v2.1h25.3l-6.7,6.8
		c-0.1,0.1-0.1,0.2-0.2,0.3h0l-3.2,6.4c-0.2,0.4-0.1,0.9,0.2,1.2l0.3,0.3l-2.5,2.5l1.5,1.5l2.5-2.5l0.3,0.3c0.2,0.2,0.5,0.3,0.8,0.3
		c0.2,0,0.3,0,0.5-0.1l6.4-3.2v0c0.1,0,0.2-0.1,0.3-0.2l8.6-8.6l2.5-2.5L222,97z M218.8,74.1l-1.2-1.2l13.5-13.5l1.2,1.2L218.8,74.1
		z"/>
	<path id="パス_18200" class="st0" d="M185.6,52h32.2v2.1h-32.2V52z"/>
	<path id="パス_18201" class="st0" d="M185.6,56.3h32.2v2.1h-32.2V56.3z"/>
	<path id="パス_18202" class="st0" d="M185.6,60.6h32.2v2.1h-32.2V60.6z"/>
	<path id="パス_18203" class="st0" d="M185.6,86.3h11.8v2.1h-11.8V86.3z"/>
	<path id="パス_18204" class="st0" d="M185.6,90.6h32.2v2.1h-32.2V90.6z"/>
</g>
<g id="グループ_2974" transform="translate(-169.523 -2343.019)">
	<path class="st1" d="M289.1,2480.7c-0.7,0-1.2-0.6-1.2-1.2v-1.8c0-0.7,0.6-1.2,1.2-1.2s1.2,0.6,1.2,1.2v1.8
		C290.3,2480.2,289.8,2480.7,289.1,2480.7z"/>
	<path class="st1" d="M300.5,2480.7c-0.7,0-1.2-0.6-1.2-1.2v-1.8c0-0.7,0.6-1.2,1.2-1.2s1.2,0.6,1.2,1.2v1.8
		C301.8,2480.2,301.2,2480.7,300.5,2480.7z"/>
	<path class="st1" d="M294.7,2491.1c-1.4,0-2.8-0.5-3.8-1.4c-0.5-0.5-0.5-1.2,0-1.7c0.5-0.5,1.2-0.5,1.7,0c1.1,1,3.2,1,4.6-0.1
		c0.5-0.4,1.3-0.3,1.7,0.2c0.4,0.5,0.3,1.3-0.2,1.7C297.5,2490.6,296.1,2491.1,294.7,2491.1z"/>
	<path class="st1" d="M294.4,2500.7c-5.7,0-13.8-4.9-15.2-9.2c-3.8-11-0.5-21.9,2.9-29.2c0.3-0.6,1-0.9,1.6-0.6
		c0.6,0.3,0.9,1,0.6,1.6c-3.2,6.8-6.3,17.1-2.8,27.3c1.1,3.3,8.4,7.5,12.9,7.5c4.5,0,11-4.3,12.7-7.7c0.4-0.8,0.7-1.4,1-1.9
		c0.9-1.7,0.9-1.7,0.8-3.5c0-0.6,0-1.4,0-2.5c0-0.7,0.6-1.2,1.2-1.2c0,0,0,0,0,0c0.7,0,1.2,0.6,1.2,1.2c0,1,0,1.8,0,2.4
		c0.1,2.3,0,2.5-1.1,4.7c-0.3,0.5-0.6,1.1-1,1.9C307.2,2495.7,300,2500.7,294.4,2500.7z"/>
	<path class="st1" d="M309.7,2504.7c-0.7,0-1.2-0.5-1.2-1.2c0-0.7,0.5-1.2,1.2-1.2c1.2,0,2.5-0.7,4-2l0.1-0.1c8.6-7.5,5.6-33-1.2-42
		c-4-4.8-9.7-7.6-15.7-7.5c-5.8,0.1-11.2,2.8-14.7,7.5c-7.5,9.8-8.2,29.7-5.4,38.6c0.7,2.3,1.5,3,1.8,3.1c0.6,0.2,1,0.9,0.8,1.5
		c-0.2,0.6-0.9,1-1.5,0.8c-1.4-0.5-2.5-2-3.4-4.8c-3-9.6-2.2-30.3,5.8-40.9c4-5.2,10.1-8.3,16.6-8.4c6.7-0.1,13.2,2.9,17.7,8.4
		c3.6,4.8,6.3,13.7,6.9,22.9c0.7,10.4-1.5,18.6-6,22.6l-0.1,0.1C314.6,2502.7,312.4,2504.7,309.7,2504.7
		C309.7,2504.7,309.7,2504.7,309.7,2504.7z"/>
	<path class="st1" d="M309.6,2502.2c-0.1,0-0.1,0-0.2,0c-0.7-0.1-1.1-0.8-1-1.4c3.8-21.6-3.3-29.4-7.5-34.1c-0.4-0.4-0.7-0.8-1-1.1
		c-0.5,2.8-1.5,6.5-4.4,6.8c-0.7,0.1-1.3-0.4-1.4-1.1c-0.1-0.7,0.4-1.3,1.1-1.4c1.6-0.2,2.3-4.5,2.5-6.1c0.2-1.5,0.4-2.4,1.5-2.6
		c0.2,0,1-0.1,1.4,0.9c0.3,0.7,1.2,1.7,2.2,2.8c4.2,4.7,12,13.4,8.1,36.2C310.7,2501.8,310.2,2502.2,309.6,2502.2z"/>
	<path class="st1" d="M286.4,2472.1c-0.5,0-1.1-0.1-1.6-0.2c-0.7-0.2-1.1-0.8-0.9-1.5c0.2-0.7,0.8-1.1,1.5-0.9
		c1.2,0.3,2.2,0.1,3.2-0.6c1.9-1.2,3.1-3.9,3.3-5.4c0.1-0.7,0.7-1.1,1.4-1c0.7,0.1,1.1,0.7,1,1.4c-0.3,1.9-1.7,5.3-4.4,7
		C288.9,2471.8,287.7,2472.1,286.4,2472.1z"/>
	<path class="st1" d="M281,2508.5c-0.4,0-0.9-0.2-1.1-0.7c-0.3-0.6-0.1-1.3,0.5-1.7c3.4-1.8,4.9-4.3,4.9-8.1c0-0.7,0.6-1.2,1.2-1.2
		s1.2,0.6,1.2,1.2c0,4.8-2,8.1-6.2,10.3C281.4,2508.5,281.2,2508.5,281,2508.5z"/>
	<path class="st1" d="M309,2508.6c-0.2,0-0.4,0-0.6-0.1c-4.2-2.2-6.3-5.6-6.3-10.3c0-0.7,0.6-1.2,1.2-1.2c0.7,0,1.2,0.6,1.2,1.2
		c0,3.9,1.5,6.4,4.9,8.1c0.6,0.3,0.8,1.1,0.5,1.7C309.8,2508.3,309.4,2508.6,309,2508.6z"/>
</g>
<g id="グループ_2975" transform="translate(-869.63 -918.742)">
	<path class="st0" d="M949,1056.1c-0.6,0-1.1-0.4-1.2-0.9c-0.2-0.7,0.2-1.3,0.9-1.5c3-0.7,5.5-3.7,6.1-7.2c0.1-0.7,0.8-1.1,1.4-1
		c0.7,0.1,1.1,0.7,1,1.4c-0.8,4.4-4,8.2-8,9.2C949.2,1056.1,949.1,1056.1,949,1056.1z"/>
	<path class="st0" d="M962.6,1055.8c-0.1,0-0.3,0-0.4-0.1c-1.9-0.6-3.6-1.8-4.8-3.5c-1.2-1.6-2.1-3.5-2.6-5.4
		c-0.2-0.7,0.2-1.3,0.9-1.5c0.7-0.2,1.3,0.2,1.5,0.9c0.4,1.7,1.2,3.2,2.2,4.6c0.9,1.2,2.1,2.1,3.6,2.6c0.6,0.2,1,0.9,0.8,1.6
		C963.6,1055.5,963.1,1055.8,962.6,1055.8z"/>
	<path class="st0" d="M955.7,1063.6c-0.6,0-1.1-0.4-1.2-1c-0.7-3.2-3.1-5.9-6-6.5c-0.7-0.2-1.1-0.8-0.9-1.5c0.2-0.7,0.8-1.1,1.5-0.9
		c3.7,0.9,6.8,4.3,7.8,8.4c0.2,0.7-0.3,1.3-0.9,1.5C955.9,1063.6,955.8,1063.6,955.7,1063.6z"/>
	<path class="st0" d="M955.9,1063.9c0,0-0.1,0-0.1,0c-0.7-0.1-1.2-0.7-1.1-1.4c0.2-2.2,1.2-4.2,2.8-5.7c1.4-1.3,3-2.4,4.7-3.2
		c0.6-0.3,1.3,0,1.6,0.6c0.3,0.6,0,1.3-0.6,1.6c-1.5,0.7-2.8,1.6-4,2.8c-1.1,1.1-1.9,2.6-2,4.2
		C957.1,1063.4,956.6,1063.9,955.9,1063.9z"/>
</g>
<g id="グループ_2977" transform="translate(-1588.092 -1983.287)">
	<path id="パス_18216" class="st2" d="M1672.2,1895.8h12c2.2,0,4,1.8,4,4v24c0,2.2-1.8,4-4,4h-36c-2.2,0-4-1.8-4-4v-24
		c0-2.2,1.8-4,4-4h4l4-4h12L1672.2,1895.8z"/>
	<circle id="楕円形_153" class="st2" cx="1662.1" cy="1912.7" r="10"/>
	<circle id="楕円形_154" class="st0" cx="1681.1" cy="1904.7" r="2"/>
	<circle id="楕円形_155" class="st2" cx="1662.1" cy="1912.7" r="4"/>
</g>
<g id="グループ_2978" transform="matrix(-0.105, -0.995, 0.995, -0.105, -85.475, 1782.606)">
	
		<rect id="長方形_2004" x="1850" y="316.7" transform="matrix(-0.7071 -0.7071 0.7071 -0.7071 2933.4089 1858.8335)" class="st0" width="3.5" height="10.3"/>
	
		<rect id="長方形_2005" x="1830.1" y="315.8" transform="matrix(-2.531423e-06 -1 1 -2.531423e-06 1517.7037 2152.8494)" class="st0" width="10.4" height="3.5"/>
</g>
</svg>
