<?xml version="1.0" encoding="utf-8"?>
<!-- Generator: Adobe Illustrator 24.3.0, SVG Export Plug-In . SVG Version: 6.00 Build 0)  -->
<svg version="1.1" id="レイヤー_1" xmlns="http://www.w3.org/2000/svg" xmlns:xlink="http://www.w3.org/1999/xlink" x="0px"
	 y="0px" viewBox="0 0 606 512" style="enable-background:new 0 0 606 512;" xml:space="preserve">
<g transform="translate(-1 -1)">
	<path d="M438.9,490.6c12.4,0.1,24.8-1.6,36.8-4.8c13.9-3.9,25.9-13.1,33.2-25.6l24-39.7c7.6-12.7,3.9-29.1-8.4-37.3l-95.1-63.4
		c-12.1-8-28.3-5.3-37.2,6.1l-27.7,35.6c-3.6,4.7-10,6.1-15.1,3.2l-5.2-2.9c-17.4-9.5-39.2-21.4-83-65.2
		c-43.9-43.8-55.7-65.5-65.2-83l-2.8-5.2c-2.9-5.1-1.6-11.7,3.1-15.2l35.6-27.7c11.4-8.9,14-25.1,6.1-37.2l-63.7-95.2
		c-8.2-12.3-24.6-16-37.3-8.4L97.3,48.5c-12.5,7.3-21.7,19.3-25.6,33.2c-14.3,52.2-3.6,142.2,129.1,274.9
		C306.3,462.3,384.9,490.6,438.9,490.6z M86.8,85.9c2.8-10.1,9.5-18.6,18.5-24l39.7-23.9c5.5-3.3,12.6-1.7,16.2,3.7l34.4,51.8
		l28.9,43.4c3.5,5.2,2.3,12.3-2.7,16.2l-35.6,27.7c-10.8,8.3-13.9,23.3-7.2,35.1l2.8,5.1c10,18.4,22.5,41.2,67.9,86.6
		s68.3,57.9,86.6,67.9l5.1,2.8c11.9,6.7,26.9,3.6,35.1-7.2l27.7-35.6c3.9-5,10.9-6.1,16.2-2.7l95.1,63.4c5.3,3.6,7,10.6,3.7,16.2
		l-23.9,39.7c-5.2,9-13.9,15.7-23.9,18.5c-48.2,13.2-132.3,2.3-259.7-125.1S73.5,134.1,86.8,85.9z"/>
</g>
</svg>
