<svg id="Capa_1" data-name="Capa 1" xmlns="http://www.w3.org/2000/svg" viewBox="0 0 512 512"><defs><style>.cls-1{fill:#fff;}</style></defs><path class="cls-1" d="M376,30c-27.78,0-53.26,8.8-75.71,26.17C278.77,72.82,264.44,94,256,109.44,247.56,94,233.23,72.82,211.71,56.17,189.26,38.8,163.78,30,136,30,58.47,30,0,93.42,0,177.51c0,90.86,72.94,153,183.37,247.12,18.75,16,40,34.1,62.1,53.42a16,16,0,0,0,21.06,0c22.1-19.32,43.35-37.44,62.11-53.43C439.06,330.53,512,268.37,512,177.51,512,93.42,453.53,30,376,30Z"/><path d="M328.31,323.26c-4.85,0-11.72-8.9-13.71-12.85L288.1,258a22.32,22.32,0,0,0-19.91-12.25H255.46c22.52-3,39.73-19.37,39.73-39.11,0-21.87-21.13-39.6-47.21-39.6-1.09,0-2.17,0-3.25.09V167H185v.35c11.88.49,21.37,11.91,21.37,23.91,0-12,9.48-23.42,21.37-23.91h14.45c14.06,2.53,24.92,19.13,24.92,39.25s-9.11,36.87-23.26,39.3H235v.7s12.73-.8,17.66,6.41L282,311.07a23.8,23.8,0,0,0,21.24,13.06H336.2v-.87Z"/><polygon points="206.37 291.38 200.11 281.38 206.37 271.38 212.63 281.38 206.37 291.38"/><polygon points="206.37 266.86 200.11 256.86 206.37 246.86 212.63 256.86 206.37 266.86"/><polygon points="206.37 242.34 200.11 232.34 206.37 222.34 212.63 232.34 206.37 242.34"/><polygon points="206.37 217.82 200.11 207.82 206.37 197.82 212.63 207.82 206.37 217.82"/><path d="M206.37,299.87c0,12-9.49,23.42-21.37,23.91v.35h42.74v-.35c-11.89-.49-21.37-11.91-21.37-23.91"/><rect x="205.75" y="180.43" width="1.18" height="128.85"/></svg>