<svg id="編集モード" xmlns="http://www.w3.org/2000/svg" viewBox="0 0 913.68 929.26"><defs><style>.cls-1{fill:#fff;}</style></defs><path class="cls-1" d="M849.18,924.18c-28.45,0-68.74-52.22-80.41-75.33L613.41,541.29a130.77,130.77,0,0,0-116.72-71.81H422.08C554.09,451.86,655,355.92,655,240.2,655,112,531.09,8,378.24,8c-6.4,0-12.75.2-19.05.56V8H9v2.06C78.67,13,134.27,79.87,134.27,150.25c0-70.38,55.6-137.3,125.28-140.19h84.71C426.69,24.91,490.35,122.23,490.35,240.2c0,118.47-53.41,216.14-136.34,230.35h-51.8v4.06s74.63-4.69,103.51,37.59l172,340.48a139.49,139.49,0,0,0,124.51,76.59H895.39v-5.08Z"/><polygon class="cls-1" points="134.27 737.24 97.58 678.63 134.27 620 170.97 678.63 134.27 737.24"/><polygon class="cls-1" points="134.27 593.5 97.58 534.88 134.27 476.27 170.97 534.88 134.27 593.5"/><polygon class="cls-1" points="134.27 449.76 97.58 391.14 134.27 332.53 170.97 391.14 134.27 449.76"/><polygon class="cls-1" points="134.27 306.02 97.58 247.4 134.27 188.78 170.97 247.4 134.27 306.02"/><path class="cls-1" d="M134.27,787c0,70.38-55.6,137.3-125.27,140.18v2.06H259.55V927.2C189.88,924.32,134.27,857.4,134.27,787"/><rect class="cls-1" x="130.66" y="86.81" width="6.92" height="755.41"/></svg>