<svg id="レイヤー_2" data-name="レイヤー 2" xmlns="http://www.w3.org/2000/svg" viewBox="0 0 426.7 426.7"><path d="M369.79,56.11h-42.2v-27c0-7.46-6.3-13.51-14.07-13.51s-14.07,6.05-14.07,13.51v27H130.62v-27c0-7.46-6.3-13.51-14.07-13.51s-14.07,6.05-14.07,13.51v27H60.27c-23.31,0-42.2,18.16-42.2,40.55V353.45C18.07,375.85,37,394,60.27,394H369.79C393.1,394,412,375.85,412,353.45V96.66C412,74.27,393.1,56.11,369.79,56.11Zm14.07,297.34A13.8,13.8,0,0,1,369.79,367H60.27A13.8,13.8,0,0,1,46.2,353.45V177.75H383.86Zm0-202.73H46.2V96.66A13.8,13.8,0,0,1,60.27,83.14h42.21v27a14.08,14.08,0,0,0,28.14,0v-27H299.45v27a14.08,14.08,0,0,0,28.14,0v-27h42.2a13.8,13.8,0,0,1,14.07,13.52v54.06Z"/><path d="M309.05,208.74a14.49,14.49,0,0,0-19.55,0L186.9,307.31,140.57,262.8a14.49,14.49,0,0,0-19.9.34,13.15,13.15,0,0,0,0,18.78L177,336a14.49,14.49,0,0,0,19.89,0L309.39,227.85A13.14,13.14,0,0,0,309.05,208.74Z"/></svg>