<svg xmlns="http://www.w3.org/2000/svg" viewBox="0 0 27 27"><g id="レイヤー_2" data-name="レイヤー 2"><g id="レイヤー_1-2" data-name="レイヤー 1"><g id="ios-checkbox-outline"><path id="パス_3" data-name="パス 3" d="M24.75,0H2.25A2.24,2.24,0,0,0,0,2.24H0v22.5A2.24,2.24,0,0,0,2.24,27H24.75A2.24,2.24,0,0,0,27,24.76h0V2.25A2.24,2.24,0,0,0,24.76,0ZM25,24.47a.56.56,0,0,1-.56.56H2.53A.56.56,0,0,1,2,24.47V2.53A.56.56,0,0,1,2.53,2H24.47a.56.56,0,0,1,.56.56V24.47Z"/><path id="パス_4" data-name="パス 4" d="M21.07,9.06,19.83,7.79a.3.3,0,0,0-.2-.08.22.22,0,0,0-.2.08l-8.58,8.64L7.73,13.31a.27.27,0,0,0-.38,0h0L6.09,14.56a.29.29,0,0,0,0,.4h0L10,18.9a1.22,1.22,0,0,0,.82.4,1.29,1.29,0,0,0,.82-.39h0l9.4-9.45a.3.3,0,0,0,0-.4Z"/></g></g></g></svg>