<?xml version="1.0" encoding="utf-8"?>
<!-- Generator: Adobe Illustrator 24.3.0, SVG Export Plug-In . SVG Version: 6.00 Build 0)  -->
<svg version="1.1" id="レイヤー_3" xmlns="http://www.w3.org/2000/svg" xmlns:xlink="http://www.w3.org/1999/xlink" x="0px"
	 y="0px" viewBox="0 0 606 512" style="enable-background:new 0 0 606 512;" xml:space="preserve">
<path d="M319.5,29.4c25-0.4,49.8-0.2,74.6-0.4c1.5,29.2,12,59,33.4,79.6c21.3,21.2,51.5,30.9,80.9,34.1v76.8
	c-27.5-0.9-55.2-6.6-80.2-18.5c-10.9-4.9-21-11.3-30.9-17.7c-0.1,55.8,0.2,111.5-0.4,167c-1.5,26.7-10.3,53.2-25.8,75.2
	c-25,36.6-68.3,60.5-112.8,61.2c-27.3,1.6-54.6-5.9-77.8-19.6c-38.5-22.7-65.7-64.3-69.6-109c-0.5-9.5-0.6-19.1-0.2-28.4
	c3.4-36.3,21.4-71.1,49.3-94.7c31.6-27.5,75.9-40.6,117.3-32.9c0.4,28.3-0.7,56.5-0.7,84.8c-18.9-6.1-41.1-4.4-57.6,7.1
	c-12.1,7.8-21.3,19.8-26,33.4c-4,9.7-2.8,20.4-2.6,30.7c4.5,31.3,34.7,57.6,66.8,54.8c21.3-0.2,41.7-12.6,52.8-30.7
	c3.6-6.3,7.6-12.8,7.8-20.3c1.9-34.1,1.1-68.1,1.4-102.3C319.3,182.8,318.9,106.1,319.5,29.4L319.5,29.4z"/>
</svg>
