<?xml version="1.0" encoding="utf-8"?>
<!-- Generator: Adobe Illustrator 24.3.0, SVG Export Plug-In . SVG Version: 6.00 Build 0)  -->
<svg version="1.1" id="レイヤー_2_1_" xmlns="http://www.w3.org/2000/svg" xmlns:xlink="http://www.w3.org/1999/xlink" x="0px"
	 y="0px" viewBox="0 0 606 512" style="enable-background:new 0 0 606 512;" xml:space="preserve">
<g>
	<path d="M472.4,70C426.4,32,365.2,11,300.3,11S174.2,32,128.2,70c-46.6,38.5-72.3,89.9-72.3,144.7c0,51.5,22.4,99.9,63,136.3
		c37.7,33.8,89.2,55.4,145.8,61.4v82.4c0,3.9,2.2,7.4,5.7,9.1c1.4,0.7,3,1.1,4.5,1.1c2.2,0,4.4-0.7,6.2-2.1l152.7-116.8
		c36.2-27.3,61.1-51.3,78.5-75.4c21.9-30.3,32.5-61.7,32.5-96C544.8,159.9,519.1,108.6,472.4,70L472.4,70z M421.4,369.9L285,474.2
		v-71.1c0-5.3-4.1-9.8-9.4-10.2c-55.8-4.1-106.7-24.4-143.2-57.1c-36.2-32.5-56.2-75.5-56.2-121.2c0-101.1,100.5-183.3,224.1-183.3
		s224.1,82.2,224.1,183.3C524.4,282.8,474.9,329.5,421.4,369.9L421.4,369.9z M421.4,369.9"/>
	<path d="M358.6,170.6c0-7.6-4-11.9-10.4-11.8c-6.3,0.1-10.1,4.4-10.2,12c-0.1,14.1,0,28.1-0.1,42.2c0,2-0.2,4-0.4,7.9
		c-2.4-2.8-3.8-4.3-5-5.8c-13-16.9-26-33.9-39-50.8c-3.2-4.1-7.2-6.6-12.5-5c-5.3,1.6-7.6,5.9-7.6,11.1c-0.1,27.1-0.1,54.3,0,81.4
		c0,4.5,1.8,8.3,6.1,10.3c7.7,3.6,14.9-1.8,15-11.6c0.2-13.3,0.1-26.6,0.1-39.8V203c2.6,1.2,3.8,2.5,4.9,4
		c13,16.7,26,33.4,38.9,50.2c3.2,4.2,6.9,7.3,12.7,5.3c5.6-1.9,7.4-6.2,7.4-11.6C358.6,224.1,358.7,197.3,358.6,170.6L358.6,170.6z
		 M358.6,170.6"/>
	<path d="M398.4,180c2-0.2,4.2-0.5,6.5-0.5c7.7-0.1,15.4,0.1,23.1-0.1c2.8-0.1,5.9-0.3,8.4-1.4c4.9-2.3,6.3-6.8,5-11.7
		c-1.3-5-5-7.6-10.3-7.6c-13.7,0-27.3-0.1-41,0c-9.8,0-13.7,3.8-13.7,13.6c-0.1,25.8-0.1,51.6,0,77.4c0,9.6,4.2,13.7,13.8,13.7
		c12.7,0.1,25.4,0,38.1,0c2.1,0,4.2-0.3,6.2-0.9c4.5-1.3,7-4.4,7.2-9.3c0.2-5.1-2.1-8.6-6.9-10c-2.6-0.8-5.3-1-7.9-1
		c-9.5-0.1-19.1-0.1-28.8-0.1v-20c1.8-0.2,3.3-0.4,4.8-0.4c9,0,18.1,0.2,27.1-0.1c7.9-0.3,12-4.6,11.7-11.3c-0.3-6-4.7-9.7-11.9-9.8
		c-5-0.1-10,0-15,0c-18.7,0-18.7,0-16.9-18.7C397.8,181.3,398,181,398.4,180L398.4,180z M398.4,180"/>
	<path d="M212.5,242.2c-2.1-0.2-4.2-0.1-6.3-0.1c-8.8,0-17.6,0-27.3,0v-7.8c0-20.6,0-41.2,0-61.8c0-8.8-3.9-13.7-10.6-13.7
		c-6.9-0.1-10.6,4.6-10.6,13.5c0,26.2,0,52.3,0,78.5c0,8.3,4.1,12.4,12.4,12.6c7.5,0.1,35.6,0.2,42.1-0.1
		c6.4-0.4,10.8-5.1,10.7-10.7C222.9,247.2,218.6,242.9,212.5,242.2L212.5,242.2z M212.5,242.2"/>
	<path d="M255.6,169.2c-0.1-7.9-2.6-10.4-10.2-10.4c-7.8,0-10.4,2.4-10.4,10.3c-0.1,27.9-0.1,55.8,0,83.7c0,7.8,2.9,10.6,10.2,10.7
		c7.6,0,10.4-2.9,10.4-11.1c0-13.7,0-27.3,0-41C255.6,197.2,255.6,183.2,255.6,169.2L255.6,169.2z M255.6,169.2"/>
</g>
</svg>
