<?xml version="1.0" encoding="utf-8"?>
<!-- Generator: Adobe Illustrator 25.0.1, SVG Export Plug-In . SVG Version: 6.00 Build 0)  -->
<svg version="1.1" id="レイヤー_1" xmlns="http://www.w3.org/2000/svg" xmlns:xlink="http://www.w3.org/1999/xlink" x="0px"
	 y="0px" viewBox="0 0 606 512" style="enable-background:new 0 0 606 512;" xml:space="preserve">
<style type="text/css">
	.st0{fill:#FFFFFF;}
</style>
<g id="SVyegJ_3_">
	<g>
		<path class="st0" d="M303.9,451.5c-58.4,0-116.8-0.2-175.2,0.2c-10.5,0.1-15.2-3.3-17.3-13.8C99,376.1,85.9,314.3,73.3,252.5
			c-0.8-3.8,1-8.2,1.5-12.2c4.3,1.4,9,2.2,12.7,4.5c5.2,3.3,9.4,8.1,14.4,11.8c25.1,18.3,50.4,36.4,75.5,54.8
			c7.7,5.6,14.9,11.9,22.5,17.8c7.6,5.8,14.1,4.5,18.1-4.2c17.1-37,34-74.1,51-111.2c9.1-19.9,18.2-39.8,27.7-59.5
			c1.3-2.7,4.9-6.5,6.5-6.1c2.9,0.7,6.2,3.8,7.5,6.6c18.1,38.6,36,77.3,53.8,116c7.3,15.8,14.5,31.7,21.3,47.7
			c6.7,15.9,11.7,17.9,25.5,7.8c34.3-25.1,68.4-50.4,102.6-75.7c3.2-2.4,5.5-6.1,8.8-8c2.8-1.6,7.1-2.5,9.9-1.5
			c1.5,0.5,2.4,5.9,1.9,8.8c-2.3,13.2-5.2,26.2-7.9,39.3c-10.3,49.4-20.9,98.8-30.7,148.3c-2.2,10.9-6.9,14.5-18,14.4
			C419.9,451.3,361.9,451.5,303.9,451.5z"/>
		<path class="st0" d="M303.5,504.7c-59.5,0-119,0-178.5,0c-15.7,0-15.7,0-13.6-15.4c2.3-17.4,2.3-17.4,19.4-17.4
			c115.6,0,231.3,0,346.9,0.1c5.2,0,13.7,0.7,14.8,3.5c3.1,7.6,3.7,16.5,3.8,24.9c0,1.4-7.2,4.1-11.1,4.1
			c-42.4,0.3-84.8,0.2-127.2,0.2C339.9,504.7,321.7,504.7,303.5,504.7z"/>
		<path class="st0" d="M524.4,204.2c0.2-13.2,10.3-23.2,23.5-23.1c13,0.1,23.4,10.6,23.3,23.5c-0.1,14.8-10.1,25.6-23.7,25.5
			C533.8,230,524.2,219.3,524.4,204.2z"/>
		<path class="st0" d="M59.3,181.2c13.1,0,23.4,10.1,23.5,23.2c0.1,14.9-9.7,25.8-23.4,25.8c-13.6,0-23.6-10.9-23.6-25.7
			C35.9,191.5,46.3,181.2,59.3,181.2z"/>
		<path class="st0" d="M326.8,107.6c-0.4,14.4-10,23.8-23.7,23.6c-13.9-0.2-23.4-10.9-23-25.7c0.4-13.4,11.6-24,24.5-23.3
			C317.8,82.8,327.2,93.6,326.8,107.6z"/>
	</g>
</g>
</svg>
