<svg id="編集モード" xmlns="http://www.w3.org/2000/svg" viewBox="0 0 958.59 944.68"><defs><style>.cls-1{fill:#f0e7ff;opacity:0.5;}</style></defs><path class="cls-1" d="M840.18,939.61c-28.45,0-68.74-52.23-80.41-75.34L604.41,556.71a130.76,130.76,0,0,0-116.72-71.8H413.08C545.09,467.28,646,371.34,646,255.62c0-128.24-123.92-232.2-276.77-232.2-6.4,0-12.75.2-19.05.56v-.56H0v2.06c69.67,2.89,125.27,69.81,125.27,140.19,0-70.38,55.6-137.3,125.28-140.19h84.71c82.43,14.85,146.09,112.18,146.09,230.14C481.35,374.09,427.94,471.76,345,486h-51.8V490s74.63-4.7,103.51,37.58l172,340.48a139.49,139.49,0,0,0,124.51,76.59H886.39v-5.07Z"/><polygon class="cls-1" points="125.27 752.66 88.58 694.05 125.27 635.42 161.97 694.05 125.27 752.66"/><polygon class="cls-1" points="125.27 608.92 88.58 550.3 125.27 491.69 161.97 550.3 125.27 608.92"/><polygon class="cls-1" points="125.27 465.18 88.58 406.56 125.27 347.95 161.97 406.56 125.27 465.18"/><polygon class="cls-1" points="125.27 321.44 88.58 262.82 125.27 204.21 161.97 262.82 125.27 321.44"/><path class="cls-1" d="M125.27,802.44c0,70.38-55.6,137.31-125.27,140.18v2.06H250.55v-2.06c-69.67-2.87-125.28-69.8-125.28-140.18"/><rect class="cls-1" x="121.66" y="102.24" width="6.92" height="755.41"/></svg>