<?xml version="1.0" encoding="utf-8"?>
<!-- Generator: Adobe Illustrator 24.0.1, SVG Export Plug-In . SVG Version: 6.00 Build 0)  -->
<svg version="1.1" id="レイヤー_3" xmlns="http://www.w3.org/2000/svg" xmlns:xlink="http://www.w3.org/1999/xlink" x="0px"
	 y="0px" viewBox="0 0 606 512" style="enable-background:new 0 0 606 512;" xml:space="preserve">
<title>ico_instagram</title>
<path d="M405.5,35H203.4C134.7,35.1,79.1,90.8,79,159.5v202.1c0.1,68.7,55.7,124.4,124.4,124.5h202.1
	c68.7-0.1,124.4-55.8,124.5-124.5V159.5C529.9,90.8,474.2,35.1,405.5,35z M490,361.5c0,46.6-37.8,84.4-84.5,84.5H203.4
	c-46.6-0.1-84.4-37.8-84.4-84.5v-202c0-46.6,37.8-84.4,84.4-84.5h202.1c46.6,0,84.4,37.8,84.5,84.5V361.5z"/>
<path d="M304.5,144.3c-64.2,0-116.2,52-116.2,116.2s52,116.2,116.2,116.2s116.2-52,116.2-116.2C420.6,196.4,368.6,144.4,304.5,144.3
	z M304.5,336.7c-42.1,0-76.2-34.1-76.2-76.2s34.1-76.2,76.2-76.2s76.2,34.1,76.2,76.2l0,0C380.6,302.6,346.6,336.6,304.5,336.7z"/>
<path d="M425.6,110.4c-16.2,0-29.3,13.1-29.4,29.3c0,16.2,13.1,29.3,29.3,29.4c16.2,0,29.3-13.1,29.4-29.3c0-7.8-3.1-15.2-8.5-20.7
	C440.8,113.5,433.4,110.4,425.6,110.4z"/>
</svg>
