<?xml version="1.0" encoding="utf-8"?>
<!-- Generator: Adobe Illustrator 25.0.1, SVG Export Plug-In . SVG Version: 6.00 Build 0)  -->
<svg version="1.1" id="レイヤー_1" xmlns="http://www.w3.org/2000/svg" xmlns:xlink="http://www.w3.org/1999/xlink" x="0px"
	 y="0px" viewBox="0 0 153 154" style="enable-background:new 0 0 153 154;" xml:space="preserve">
<style type="text/css">
	.st0{fill:#FFFFFF;}
</style>
<g>
	<path class="st0" d="M67.5,25.1c5.7-5.4,13.9-5,19.1,0c0.7-0.7,1.5-1.4,2.3-2c3.2-2.9,6.4-5.9,9.7-8.7c10.1-8.8,25.9-3.5,28.6,9.7
		c0.7,3.6,0.4,7.2-1.2,10.6c-0.1,0.2-0.2,0.4-0.2,0.5c0,0.1,0,0.1,0,0.3c0.4,0,0.8,0,1.2,0c2.8,0,5.7-0.1,8.5,0.1
		c4.4,0.4,7.8,4.2,7.9,8.7c0.1,4.4,0,8.8,0,13.1c0,2.6-2,4.6-4.7,4.7c-0.2,0-0.5,0-0.7,0c-40.5,0-81,0-121.5,0c-0.6,0-1.2,0-1.8-0.1
		c-2.1-0.5-3.6-2.4-3.6-4.6c0-4.4-0.1-8.8,0-13.1c0.1-4.9,4.1-8.7,9-8.8c2.5,0,4.9,0,7.4,0c0.4,0,0.7,0,1.2,0
		c-0.1-0.3-0.1-0.5-0.2-0.6c-3.5-7.5-1.4-16.3,5.2-21.2c6.7-5,15.9-4.7,22.1,0.8c3.7,3.3,7.4,6.7,11.1,10.1
		C67,24.7,67.2,24.9,67.5,25.1z M63.9,35.3c-0.3-0.5-0.5-0.9-0.8-1.2c-4.5-4.1-9-8.2-13.5-12.2c-0.4-0.4-0.9-0.7-1.3-1
		c-2.7-1.8-6.3-1.6-9,0.4c-2.7,2-3.8,5.4-2.8,8.6c0.9,3.1,3.7,5.5,6.9,5.6c6.7,0.1,13.3,0,20,0C63.4,35.4,63.5,35.4,63.9,35.3z
		 M90.2,35.3c0.4,0.1,0.5,0.1,0.6,0.1c6.5,0,12.9,0.1,19.4,0c3.5-0.1,6.6-2.6,7.5-5.9c0.9-3.4-0.5-6.9-3.4-8.7
		c-3-1.9-6.7-1.6-9.5,0.8c-4.7,4.1-9.3,8.4-13.9,12.6C90.5,34.4,90.4,34.9,90.2,35.3z"/>
	<path class="st0" d="M19.5,69.7c16.5,0,32.9,0,49.4,0c0,24.1,0,48.1,0,72.3c-0.4,0-0.7,0-1.1,0c-12.9,0-25.8,0-38.6,0
		c-5.9,0-9.7-3.8-9.7-9.6c0-20.4,0-40.8,0-61.2C19.5,70.7,19.5,70.3,19.5,69.7z"/>
	<path class="st0" d="M85.1,69.7c16.5,0,32.9,0,49.4,0c0,0.4,0,0.8,0,1.1c0,20.5,0,41.1,0,61.6c0,5.7-3.8,9.5-9.5,9.5
		c-13,0-26,0-38.9,0c-0.3,0-0.6,0-1,0C85.1,117.9,85.1,93.8,85.1,69.7z"/>
</g>
</svg>
