<svg xmlns="http://www.w3.org/2000/svg" viewBox="0 0 511.99 501.86"><g id="レイヤー_2" data-name="レイヤー 2"><g id="_2" data-name="2"><path d="M214.34,388.91a10,10,0,0,1-3.4,2.28,10.39,10.39,0,0,1-5.91.56,10.14,10.14,0,0,1-5.34-2.84l-76.6-76.59a10.35,10.35,0,0,1-2.28-3.42,10.47,10.47,0,0,1-.56-5.91,10.25,10.25,0,0,1,2.84-5.33l158.3-158.3-23.67-23.65L99.44,274a43.78,43.78,0,0,0,0,62L176,412.57a43.29,43.29,0,0,0,14.5,9.62A43.83,43.83,0,0,0,238,412.57L396.31,254.29l-23.67-23.66Z"/><path d="M89,394.83c-5.28,5.3-6.31,12.83-2.31,16.83l13.65,13.66c4,4,11.53,3,16.83-2.32l25.63-25.62-28.16-28.17Z"/><polygon points="0 496.8 25.34 501.86 90.69 436.52 75.48 421.32 0 496.8"/><path d="M311.52,52.9a29.87,29.87,0,0,0-42.25,42.24l147.59,147.6a29.88,29.88,0,0,0,42.25-42.25Z"/><path d="M503.25,86.88,425.11,8.75A29.87,29.87,0,0,0,382.87,51L391,59.08,367.28,82.75,391,106.41l23.66-23.66L429.27,97.4l-23.68,23.65,23.68,23.66,23.64-23.66,8.09,8.1a29.88,29.88,0,0,0,42.25-42.27Z"/><rect x="293.27" y="225.42" width="14.34" height="40" transform="translate(-85.54 284.33) rotate(-45)"/><polygon points="267.89 306.25 278.03 296.11 249.73 267.83 239.59 277.97 267.89 306.25"/><rect x="211.71" y="306.96" width="14.34" height="40.02" transform="translate(-167.1 250.54) rotate(-45)"/></g></g></svg>