<svg xmlns="http://www.w3.org/2000/svg" viewBox="0 0 470.81 512"><g id="レイヤー_2" data-name="レイヤー 2"><g id="_2" data-name="2"><path d="M443.42,279.89c-.07-.69-.14-1.36-.26-2l1.19-.52-2.85-4.61a20,20,0,0,0-1.9-3.29c0-.13,0-.24-.05-.38a47.23,47.23,0,0,1-.31-6.47c0-3.45.15-7.5.32-12,.22-5.8.47-12.35.47-19.41,0-13.77-.84-34.66-8.18-57-7.63-23.39-21.11-44.3-40.07-62.09C372,93.37,347.56,79.8,319.09,71.58A52.76,52.76,0,0,0,269.83,0a52.06,52.06,0,0,0-34.42,13A52,52,0,0,0,201,0a52.85,52.85,0,0,0-52.73,52.73,52.18,52.18,0,0,0,3.48,18.86C123.25,79.8,98.85,93.37,79,112,60.09,129.84,46.59,150.73,39,174.14c-7.34,22.34-8.19,43.23-8.19,57,0,7.08.25,13.64.47,19.45.17,4.5.33,8.52.33,12s-.2,5.85-.24,6.68a21.42,21.42,0,0,0-3.95,10.62C10.86,299,0,321,0,363.06,0,456.33,88,512,235.41,512s235.4-55.67,235.4-148.94C470.81,321,460,299,443.42,279.89Zm-134-208a47,47,0,0,1-3,5.53l-.13,0A47.26,47.26,0,0,0,309.41,71.86Zm-39.58-36.7a17.58,17.58,0,1,1-17.58,17.57A17.62,17.62,0,0,1,269.83,35.16Zm-68.86,0a17.58,17.58,0,1,1-17.58,17.57A17.62,17.62,0,0,1,201,35.16Zm-36.41,42.2-.12,0a44.22,44.22,0,0,1-3-5.53A47.19,47.19,0,0,0,164.56,77.36ZM72.38,185.09c5.22-15.84,14.25-31.87,30.75-47.45,19.31-18.19,42-28.39,65.25-34.12s46.83-6.85,67-6.83,43.81,1.09,67,6.83,45.91,15.93,65.25,34.12c16.5,15.58,25.53,31.61,30.75,47.45s6.44,31.6,6.44,46.07c0,7.08-.25,13.67-.47,20A160,160,0,0,1,377.6,205c-23.88-61.94-66.36-82.25-142.19-82.25S117.09,143,93.22,205a159.19,159.19,0,0,1-26.81,46.19c-.22-6.33-.5-12.91-.47-20C65.94,216.7,67.16,200.94,72.38,185.09Zm163,291.75c-47,0-200.25-8.22-200.25-113.78,0-41.79,11.84-53.7,31.44-73.44,16.18-16.28,36.37-36.56,51.23-75.18,18.83-48.86,48.5-65.35,117.58-65.35S334.16,165.58,353,214.44c14.89,38.62,35,58.9,51.23,75.18,19.59,19.74,31.44,31.65,31.44,73.44C435.66,468.62,282.38,476.84,235.41,476.84Z"/></g></g></svg>