<?xml version="1.0" encoding="utf-8"?>
<!-- Generator: Adobe Illustrator 24.3.0, SVG Export Plug-In . SVG Version: 6.00 Build 0)  -->
<svg version="1.1" id="レイヤー_2_1_" xmlns="http://www.w3.org/2000/svg" xmlns:xlink="http://www.w3.org/1999/xlink" x="0px"
	 y="0px" viewBox="0 0 426.7 426.7" style="enable-background:new 0 0 426.7 426.7;" xml:space="preserve">
<style type="text/css">
	.st0{fill:#00B900;}
	.st1{fill:#FFFFFF;}
</style>
<g>
	<circle class="st0" cx="214.4" cy="213.9" r="209.4"/>
	<g id="TYPE_A_19_">
		<g>
			<path class="st1" d="M353.6,201.3c0-62.3-62.5-113-139.3-113c-76.8,0-139.3,50.7-139.3,113c0,55.9,49.5,102.7,116.5,111.5
				c4.5,1,10.7,3,12.3,6.9c1.4,3.5,0.9,9,0.5,12.6c0,0-1.6,9.8-2,11.9c-0.6,3.5-2.8,13.8,12.1,7.5c14.9-6.3,80.2-47.2,109.4-80.9h0
				C344,248.7,353.6,226.2,353.6,201.3"/>
			<g>
				<path class="st0" d="M186.1,171.2h-9.8c-1.5,0-2.7,1.2-2.7,2.7v60.7c0,1.5,1.2,2.7,2.7,2.7h9.8c1.5,0,2.7-1.2,2.7-2.7v-60.7
					C188.8,172.4,187.6,171.2,186.1,171.2"/>
				<path class="st0" d="M253.3,171.2h-9.8c-1.5,0-2.7,1.2-2.7,2.7v36L213,172.4c-0.1-0.1-0.1-0.2-0.2-0.3c0,0,0,0,0,0
					c-0.1-0.1-0.1-0.1-0.2-0.2c0,0,0,0-0.1,0c0,0-0.1-0.1-0.1-0.1c0,0,0,0-0.1-0.1c0,0-0.1-0.1-0.1-0.1c0,0-0.1,0-0.1,0
					c0,0-0.1-0.1-0.1-0.1c0,0-0.1,0-0.1,0c-0.1,0-0.1,0-0.2-0.1c0,0-0.1,0-0.1,0c-0.1,0-0.1,0-0.2-0.1c0,0-0.1,0-0.1,0
					c-0.1,0-0.1,0-0.2,0c0,0-0.1,0-0.1,0c0,0-0.1,0-0.1,0c0,0-0.1,0-0.1,0c0,0-0.1,0-0.1,0H201c-1.5,0-2.7,1.2-2.7,2.7v60.7
					c0,1.5,1.2,2.7,2.7,2.7h9.8c1.5,0,2.7-1.2,2.7-2.7v-36l27.8,37.6c0.2,0.3,0.4,0.5,0.7,0.7c0,0,0,0,0,0c0.1,0,0.1,0.1,0.2,0.1
					c0,0,0.1,0,0.1,0c0,0,0.1,0,0.1,0.1c0,0,0.1,0,0.1,0.1c0,0,0.1,0,0.1,0c0.1,0,0.1,0,0.2,0.1c0,0,0,0,0,0
					c0.2,0.1,0.5,0.1,0.7,0.1h9.8c1.5,0,2.7-1.2,2.7-2.7v-60.7C256,172.4,254.8,171.2,253.3,171.2"/>
				<path class="st0" d="M162.5,222.1H136v-48.2c0-1.5-1.2-2.7-2.7-2.7h-9.8c-1.5,0-2.7,1.2-2.7,2.7v60.7v0c0,0.7,0.3,1.4,0.8,1.9
					c0,0,0,0,0,0c0,0,0,0,0,0c0.5,0.5,1.1,0.8,1.9,0.8h0h39c1.5,0,2.7-1.2,2.7-2.7v-9.8C165.2,223.3,164,222.1,162.5,222.1"/>
				<path class="st0" d="M307.2,186.4c1.5,0,2.7-1.2,2.7-2.7v-9.8c0-1.5-1.2-2.7-2.7-2.7h-39h0c-0.7,0-1.4,0.3-1.9,0.8c0,0,0,0,0,0
					c0,0,0,0,0,0c-0.5,0.5-0.8,1.1-0.8,1.9v0v60.7v0c0,0.7,0.3,1.4,0.8,1.9c0,0,0,0,0,0c0,0,0,0,0,0c0.5,0.5,1.1,0.8,1.9,0.8h0h39
					c1.5,0,2.7-1.2,2.7-2.7v-9.8c0-1.5-1.2-2.7-2.7-2.7h-26.5v-10.3h26.5c1.5,0,2.7-1.2,2.7-2.7v-9.8c0-1.5-1.2-2.7-2.7-2.7h-26.5
					v-10.3H307.2z"/>
			</g>
		</g>
	</g>
</g>
</svg>
