<?xml version="1.0" encoding="utf-8"?>
<!-- Generator: Adobe Illustrator 24.3.0, SVG Export Plug-In . SVG Version: 6.00 Build 0)  -->
<svg version="1.1" id="レイヤー_1" xmlns="http://www.w3.org/2000/svg" xmlns:xlink="http://www.w3.org/1999/xlink" x="0px"
	 y="0px" viewBox="0 0 5986.9 1945.2" style="enable-background:new 0 0 5986.9 1945.2;" xml:space="preserve">
<g>
	<g>
		<path d="M2548.9,80V66.9h142c26.3,0,52.3-0.5,78.1-1.4c25.7-0.9,51.7-1.4,78.1-1.4c24.5,0,50.2,2.5,77.1,7.5
			c26.9,5,51.6,13.5,73.8,25.4c22.2,11.9,40.6,27.9,55,48c14.4,20.1,21.6,45.1,21.6,75.2c0,27-7,49.7-21.2,68.2
			c-14.1,18.5-31.2,33.7-51.3,45.6c-20.1,11.9-40.9,21-62.6,27.3c-21.6,6.3-40,10.3-55,12.2v3.8c24.4,1.9,49.8,6,76.2,12.2
			c26.3,6.3,50.5,16.2,72.4,29.6c21.9,13.5,40.1,31.2,54.6,53.1c14.4,22,21.6,49.5,21.6,82.8c0,36.4-9.3,66.5-27.7,90.3
			c-18.5,23.8-41.1,42.6-67.7,56.4c-26.7,13.8-55,23.4-85.1,28.7c-30.1,5.3-57.1,8-80.9,8c-26.3,0-52.5-0.3-78.5-0.9
			c-26-0.6-52.2-0.9-78.5-0.9h-142v-13.2h86.5V80H2548.9z M2810.4,370.7c28.2,0,50.5-3.7,66.8-11.3c16.3-7.5,28.5-17.7,36.7-30.6
			c8.1-12.9,13.3-27.4,15.5-43.7c2.2-16.3,3.3-32.9,3.3-49.8c0-27.6-1.9-51.3-5.6-71c-3.8-19.8-10-36.1-18.8-48.9
			c-8.8-12.8-20.8-22.4-36.2-28.7c-15.4-6.3-35-9.4-58.8-9.4c-6.9,0-13.8,0.3-20.7,0.9c-6.9,0.6-13.8,1.3-20.7,1.9v290.6H2810.4z
			 M2826.4,726.2c20.1,0,38.1-2.4,54.1-7.1c16-4.7,29.6-13.6,40.9-26.8c11.3-13.2,19.9-31.5,25.9-55c6-23.5,8.9-54.4,8.9-92.6
			c0-10.7-0.9-24.9-2.8-42.8c-1.9-17.9-7.1-35.6-15.5-53.2c-8.5-17.6-21.3-32.8-38.6-45.6c-17.2-12.8-41.5-19.3-72.9-19.3h-54.6
			v339.5C2788.8,725.3,2806.9,726.2,2826.4,726.2z"/>
		<path d="M3320.2,542.8c0,22.6,0.9,45.3,2.8,68.2c1.9,22.9,6.9,43.6,15.1,62.1c8.1,18.5,20.1,33.7,35.7,45.6
			c15.7,11.9,37.6,17.9,65.8,17.9c25.1,0,46.2-4.7,63.5-14.1c17.2-9.4,31.3-20.2,42.3-32.4c11-12.2,19.1-24.3,24.5-36.2
			c5.3-11.9,8.3-20.7,8.9-26.3l13.2,4.7c-3.1,11.9-8.5,24.6-16,38.1c-7.5,13.5-17.9,26-31,37.6c-13.2,11.6-29.5,21.3-48.9,29.2
			c-19.4,7.8-43,11.7-70.5,11.7c-32.6,0-63-4.9-91.2-14.6c-28.2-9.7-52.8-23.8-73.8-42.3c-21-18.5-37.5-41.1-49.4-67.7
			c-11.9-26.6-17.9-56.9-17.9-90.8c0-27,5.6-53.3,16.9-79c11.3-25.7,26.8-48.4,46.6-68.2c19.8-19.8,43-35.7,69.6-48
			c26.6-12.2,55.3-18.3,86.1-18.3c21.9,0,43.9,3.5,65.9,10.3c21.9,6.9,41.7,17.6,59.2,32c17.6,14.4,32,33.1,43.3,56
			c11.3,22.9,16.9,50.3,16.9,82.3h-277.5V542.8z M3470.7,424.3c0-6.9-0.3-15.4-0.9-25.4c-0.6-10-2.8-20.1-6.6-30.1
			c-3.8-10-9.9-18.5-18.3-25.4c-8.5-6.9-20.2-10.3-35.3-10.3c-21.3,0-37.8,5-49.4,15.1c-11.6,10-20.2,22.7-25.9,38.1
			c-5.6,15.4-9.2,32-10.8,49.8c-1.6,17.9-2.7,35-3.3,51.3h150.5V424.3z"/>
		<path d="M4069.4,745c-16.6,2.5-32.1,3.8-46.6,3.8c-32,0-55.6-5.7-71-16.9c-15.4-11.3-24.9-27-28.7-47h-1.9
			c-10.1,25.1-23.8,42-41.4,50.8c-17.6,8.8-43,13.2-76.2,13.2c-15.1,0-30.4-1.6-46.1-4.7c-15.7-3.1-30.1-8.1-43.3-15.1
			c-13.2-6.9-23.9-16.5-32-28.7c-8.2-12.2-12.2-27.1-12.2-44.7c0-18.2,3.6-33.4,10.8-45.6c7.2-12.2,16.6-22.6,28.2-31
			c11.6-8.5,24.8-15.4,39.5-20.7c14.7-5.3,29.9-10.5,45.6-15.5c25.7-7.5,46.6-13.9,62.6-19.3c16-5.3,28.4-11,37.2-16.9
			c8.8-5.9,14.9-12.7,18.3-20.2c3.4-7.5,5.2-17.2,5.2-29.2v-57.4c0-16.9-4.1-32.3-12.2-46.1c-8.2-13.8-23.5-20.7-46.1-20.7
			c-14.4,0-27,3.3-37.6,9.9c-10.7,6.6-16,18.7-16,36.2c0,1.9,0.3,5.2,0.9,9.9c0.6,4.7,1.3,9.9,1.9,15.5c0.6,5.7,1.2,11,1.9,16
			c0.6,5,0.9,8.5,0.9,10.3c0,9.4-2.2,16.8-6.6,22.1c-4.4,5.3-9.6,9.3-15.5,11.8c-6,2.5-12.2,3.9-18.8,4.2
			c-6.6,0.3-12.1,0.5-16.5,0.5c-6.3,0-12.7-0.5-19.3-1.4c-6.6-0.9-12.4-3.1-17.4-6.6c-5-3.4-9.3-8.3-12.7-14.6
			c-3.5-6.3-5.2-14.7-5.2-25.4c0-16.3,4.5-30.9,13.6-43.7c9.1-12.9,21.2-23.5,36.2-32c15.1-8.5,32.1-14.9,51.3-19.3
			c19.1-4.4,39-6.6,59.7-6.6c23.8,0,46.2,1.9,67.2,5.7c21,3.7,39.2,10.7,54.6,20.7c15.3,10,27.6,23.7,36.7,40.9
			c9.1,17.3,13.7,39,13.7,65.4v233.3c0,11.9,1.7,22.4,5.2,31.5c3.4,9.1,12.1,13.6,25.9,13.6c8.1,0,14.9-1.6,20.2-4.7
			c5.3-3.1,10.5-7.5,15.5-13.2l8.5,8.5C4098.7,734.7,4086,742.5,4069.4,745z M3915.6,503.3c-1.3,3.8-3.6,7.4-7.1,10.8
			c-3.4,3.4-9.6,7.4-18.3,11.8c-11.9,5.6-23.8,11.1-35.7,16.5c-11.9,5.3-22.6,12.1-32,20.2c-9.4,8.2-17.1,18.2-23,30.1
			c-6,11.9-8.9,27.3-8.9,46.1c0,7.5,0.5,16.3,1.4,26.3c0.9,10,3.4,19.8,7.5,29.2c4.1,9.4,10.2,17.4,18.3,24
			c8.1,6.6,19.4,9.9,33.9,9.9c8.1,0,16.1-1.9,24-5.7c7.8-3.8,14.9-9.5,21.2-17.4c6.3-7.8,11.3-18.2,15-31
			c3.8-12.9,5.6-28.4,5.6-46.6V503.3H3915.6z"/>
		<path d="M4321.9,333.1v298.2c0,23.8,4.7,44.1,14.1,60.7c9.4,16.6,26,24.9,49.9,24.9c14.4,0,27.6-3.4,39.5-10.3
			c11.9-6.9,22.1-16.1,30.6-27.7c8.5-11.6,15-25.2,19.8-40.9c4.7-15.7,7-32,7-48.9V346.2h-62.1v-13.2h176.8v390.3h62.1v13.2h-175
			v-76.2h-1.9c-5,13.8-12.5,25.9-22.6,36.2c-10.1,10.3-21.5,19.1-34.3,26.3c-12.9,7.2-26.5,12.6-40.9,16
			c-14.4,3.4-28.5,5.2-42.3,5.2c-43.9,0-77.5-9.5-100.7-28.7c-23.2-19.1-34.8-51.6-34.8-97.4V346.2h-63v-13.2H4321.9z"/>
		<path d="M4817.1,221.1c9.7,2.5,19.3,3.8,28.7,3.8c9.4,0,19-1.2,28.7-3.8c9.7-2.5,19.3-5.7,28.7-9.4v121.3h110v13.2h-110v315.1
			c0,9.4,0.6,18.2,1.9,26.3c1.2,8.2,3.6,15.5,7.1,22.1c3.4,6.6,8.5,11.7,15,15.5c6.6,3.8,15.2,5.6,25.9,5.6
			c11.9,0,22.1-2.5,30.6-7.5c8.5-5,15.8-11.4,22.1-19.3c6.3-7.8,11.4-16.8,15.5-26.8c4.1-10,7.4-19.7,9.9-29.2l14.1,2.8
			c-3.8,21.3-10.2,38.4-19.3,51.3c-9.1,12.9-19.4,22.7-31,29.6c-11.6,6.9-24,11.4-37.2,13.6c-13.2,2.2-25.7,3.3-37.6,3.3
			c-32.6,0-57.8-3.8-75.7-11.3c-17.9-7.5-31-16.9-39.5-28.2c-8.5-11.3-13.3-23.5-14.6-36.7c-1.3-13.2-1.9-25.4-1.9-36.7V346.2h-63
			v-13.2h63V211.7C4797.8,215.5,4807.4,218.6,4817.1,221.1z"/>
		<path d="M5442.1,346.2h-78.1v-13.2h136.4v13.2h-43.3c-35.1,75.2-65.2,142.7-90.3,202.2c-25.1,59.6-46.9,112.6-65.4,159
			c-18.5,46.4-34.8,87.3-48.9,122.7c-14.1,35.4-27.4,66.6-40,93.6c-12.6,28.2-26.7,48.9-42.3,62.1c-15.7,13.2-36.7,19.7-63,19.7
			c-28.2,0-51.3-6.7-69.1-20.2c-17.9-13.5-26.8-32.1-26.8-56c0-18.2,5.8-31.4,17.4-39.5c11.6-8.2,25.6-12.2,41.9-12.2
			c11.9,0,23.2,3.3,33.9,9.9c10.7,6.6,16,16.5,16,29.6c0,11.3-2,20.4-6.1,27.3c-4.1,6.9-6.1,15.1-6.1,24.5c0,6.9,1.9,12.1,5.7,15.5
			c3.8,3.4,8.1,5.2,13.2,5.2c11.3,0,21.8-4.1,31.5-12.2c9.7-8.2,18.5-18.3,26.3-30.6c7.8-12.2,14.7-25.2,20.7-39
			c5.9-13.8,11.1-26.3,15.5-37.6l40.5-100.6l-176.8-423.3h-49.9v-13.2h238.9v13.2h-65.9l114.8,271.8L5442.1,346.2z"/>
		<path d="M2622,1335.6c-8.1-24.3-17.9-49.8-29.2-76.7c-11.4-26.8-26.1-51.5-44.2-73.9c-18-22.4-40.5-40.8-67.3-55.2
			c-26.9-14.3-60.1-21.5-99.9-21.5c-53.7,0-96,9.9-126.9,29.8c-30.9,19.8-54.3,47.4-70.1,82.7c-15.8,35.3-25.9,77.4-30.3,126.3
			c-4.4,48.9-6.6,102.4-6.6,160.5c0,76.5,4.4,139.8,13.2,189.8c8.8,50,22.6,89.7,41.4,119.2c18.8,29.4,43,50,72.8,61.8
			c29.8,11.8,65.3,17.6,106.5,17.6c33.1,0,63.1-6.6,89.9-19.8c26.8-13.3,50.5-30.7,71.2-52.4c20.6-21.7,37.9-46.5,51.9-74.5
			c14-27.9,24.3-57,30.9-87.2h17.7v233.9h-17.7c-3.7-8.8-8.1-14.9-13.2-18.2c-5.1-3.3-12.9-5-23.2-5c-8.8,0-20.3,2-34.2,6.1
			c-14,4-30,8.5-48,13.2c-18,4.8-37.7,9.2-59,13.2c-21.3,4-43.8,6.1-67.3,6.1c-53.7,0-105.6-10.5-155.6-31.4
			c-50-21-94-49.7-131.9-86.1c-37.9-36.4-68.2-79.2-91-128.5c-22.8-49.3-34.2-102.6-34.2-160c0-62.5,12.7-119.2,38.1-169.9
			c25.4-50.7,57.9-94.1,97.6-130.2c39.7-36,84-63.8,133-83.3c48.9-19.5,96.9-29.2,144-29.2c23.5,0,45.4,2.2,65.7,6.6
			c20.2,4.4,39,9,56.3,13.8c17.3,4.8,32.9,9.4,46.9,13.8c13.9,4.4,25.7,6.6,35.3,6.6c10.3,0,18-1.3,23.2-3.9c5.1-2.6,8.8-9,11-19.3
			h17.7v225.1H2622z"/>
		<path d="M3121.8,1110.5v15.4h-101.5v754.7h182.1c24.3,0,48.7-4,73.4-12.1c24.6-8.1,47.8-21.5,69.5-40.3
			c21.7-18.8,41.2-43,58.5-72.8c17.3-29.8,30.7-66,40.3-108.7h14.3v249.4h-699.5v-15.4h101.5V1126h-101.5v-15.4H3121.8z"/>
		<path d="M3910.7,1110.5v15.4h-101.5v754.7h101.5v15.4h-363v-15.4h101.5V1126h-101.5v-15.4H3910.7z"/>
		<path d="M4251.7,1110.5l367.4,525.2h2.2V1126h-101.5v-15.4h220.7v15.4H4639v770.2h-29.8l-496.5-707.3h-2.2v691.8H4212v15.4h-220.7
			v-15.4h101.5V1126h-101.5v-15.4H4251.7z"/>
		<path d="M5177.4,1110.5v15.4h-101.5v754.7h101.5v15.4h-363v-15.4h101.5V1126h-101.5v-15.4H5177.4z"/>
		<path d="M5931,1335.6c-8.1-24.3-17.9-49.8-29.2-76.7c-11.4-26.8-26.1-51.5-44.1-73.9c-18-22.4-40.5-40.8-67.3-55.2
			c-26.8-14.3-60.1-21.5-99.8-21.5c-53.7,0-96,9.9-126.9,29.8c-30.9,19.8-54.3,47.4-70.1,82.7c-15.8,35.3-25.9,77.4-30.3,126.3
			c-4.4,48.9-6.6,102.4-6.6,160.5c0,76.5,4.4,139.8,13.2,189.8c8.8,50,22.6,89.7,41.4,119.2c18.7,29.4,43,50,72.8,61.8
			c29.8,11.8,65.3,17.6,106.5,17.6c33.1,0,63.1-6.6,89.9-19.8c26.8-13.3,50.6-30.7,71.2-52.4c20.6-21.7,37.9-46.5,51.9-74.5
			c14-27.9,24.3-57,30.9-87.2h17.7v233.9h-17.7c-3.7-8.8-8.1-14.9-13.2-18.2c-5.2-3.3-12.9-5-23.2-5c-8.8,0-20.3,2-34.2,6.1
			c-14,4-30,8.5-48,13.2c-18,4.8-37.7,9.2-59,13.2c-21.3,4-43.8,6.1-67.3,6.1c-53.7,0-105.6-10.5-155.6-31.4
			c-50-21-94-49.7-131.9-86.1c-37.9-36.4-68.2-79.2-91-128.5c-22.8-49.3-34.2-102.6-34.2-160c0-62.5,12.7-119.2,38.1-169.9
			c25.4-50.7,57.9-94.1,97.6-130.2c39.7-36,84-63.8,133-83.3c48.9-19.5,96.9-29.2,144-29.2c23.5,0,45.4,2.2,65.7,6.6
			c20.2,4.4,39,9,56.3,13.8c17.3,4.8,32.9,9.4,46.9,13.8c14,4.4,25.7,6.6,35.3,6.6c10.3,0,18-1.3,23.2-3.9c5.1-2.6,8.8-9,11-19.3
			h17.7v225.1H5931z"/>
	</g>
	<path d="M1711.9,1881.4c-57,0-137.8-104.7-161.3-151.1l-311.6-616.8c-44.6-88.3-135.1-144-234.1-144H855.4
		c264.8-35.4,467.1-227.8,467.1-459.8c0-257.2-248.5-465.7-555-465.7c-12.8,0-25.6,0.4-38.2,1.1V44H529.5h-1H27v4.1
		c139.7,5.8,251.2,140,251.2,281.1c0-141.2,111.5-275.4,251.2-281.1h169.9c165.3,29.8,293,225,293,461.5
		c0,237.6-107.1,433.5-273.4,462c-47.5,0-90.3,0-103.9,0v8.1c0,0,149.7-9.4,207.6,75.4l344.9,682.8
		c47.6,94.2,144.1,153.6,249.7,153.6h208.1h6.8h172.5v-10.2H1711.9z"/>
	<polygon points="278.2,1506.4 204.6,1388.9 278.2,1271.3 351.8,1388.9 	"/>
	<polygon points="278.2,1218.2 204.6,1100.6 278.2,983.1 351.8,1100.6 	"/>
	<polygon points="278.2,929.9 204.6,812.4 278.2,694.8 351.8,812.4 	"/>
	<polygon points="278.2,641.7 204.6,524.1 278.2,406.6 351.8,524.1 	"/>
	<path d="M278.2,1606.3c0,141.1-111.5,275.3-251.2,281.1v4.1h502.5v-4.1C389.7,1881.6,278.2,1747.4,278.2,1606.3"/>
	<rect x="271" y="202.1" width="13.9" height="1514.9"/>
</g>
</svg>
